# This file uses centimeters as units for non-parametric coordinates.

mtllib Fachada.mtl
g default
v -3.725708 -0.018996 7.944343
v -3.528232 -0.018996 7.944343
v -3.725708 10.320908 7.944343
v -3.528232 10.320908 7.944343
v -3.725708 10.320908 -7.944343
v -3.528232 10.320908 -7.944343
v -3.725708 -0.018996 -7.944343
v -3.528232 -0.018996 -7.944343
v -3.725708 8.758942 7.944343
v -3.528232 8.758942 7.944343
v -3.528232 8.758942 -7.944343
v -3.725708 8.758942 -7.944343
v -3.725708 10.320908 -5.158389
v -3.528232 10.320908 -5.158389
v -3.528232 8.758942 -5.158389
v -3.528232 -0.018996 -5.158390
v -3.725708 -0.018996 -5.158390
v -3.725708 8.758942 -5.158390
v -3.725708 10.320908 -2.454444
v -3.528232 10.320908 -2.454444
v -3.528232 8.758942 -2.454444
v -3.528232 -0.018996 -2.454444
v -3.725708 -0.018996 -2.454444
v -3.725708 8.758942 -2.454444
v -3.725708 4.120302 7.944343
v -3.528232 4.120302 7.944343
v -3.528232 4.120302 -2.454444
v -3.528232 4.120302 -5.158389
v -3.528232 4.120302 -7.944343
v -3.725708 4.120302 -7.944343
v -3.725708 4.120302 -5.158390
v -3.725708 4.120302 -2.454444
v -3.528232 2.050653 -5.158390
v -3.528232 5.152719 -7.944343
v -3.528232 5.152719 -5.158389
v -3.528232 5.152719 -2.454444
v -3.528232 5.152719 7.944343
v -3.725708 5.152719 7.944343
v -3.725708 5.152719 -2.454444
v -3.725708 5.152719 -5.158390
v -3.725708 5.152719 -7.944343
v -3.528232 6.955831 -7.944343
v -3.725708 10.320908 7.944343
v -3.528232 10.320908 7.944343
v -3.528232 10.320908 -2.454444
v -3.528232 8.758942 -2.454444
v -3.528232 5.152719 -2.454444
v -3.528232 4.120302 -2.454444
v -3.528232 -0.018996 -2.454444
v -3.528232 -0.018996 7.944343
v -3.725708 -0.018996 7.944343
v -3.725708 -0.018996 -2.454444
v -3.725708 4.120302 -2.454444
v -3.725708 5.152719 -2.454444
v -3.725708 8.758942 -2.454444
v -3.725708 10.320908 -2.454444
vt 0.375000 0.250000
vt 0.625000 0.250000
vt 0.375000 0.500000
vt 0.625000 0.500000
vt 0.375000 0.750000
vt 0.625000 0.750000
vt 0.375000 1.000000
vt 0.625000 1.000000
vt 0.875000 0.000000
vt 0.875000 0.250000
vt 0.125000 0.000000
vt 0.125000 0.250000
vt 0.375000 0.235510
vt 0.625000 0.235510
vt 0.625000 0.537766
vt 0.875000 0.212234
vt 0.125000 0.212234
vt 0.375000 0.537766
vt 0.168836 0.250000
vt 0.375000 0.456164
vt 0.625000 0.456164
vt 0.831164 0.250000
vt 0.831164 0.212234
vt 0.625000 0.793836
vt 0.831165 0.000000
vt 0.168836 0.000000
vt 0.375000 0.793836
vt 0.168836 0.212235
vt 0.211381 0.250000
vt 0.375000 0.413619
vt 0.625000 0.413619
vt 0.788619 0.250000
vt 0.788619 0.212234
vt 0.625000 0.836381
vt 0.375000 0.836381
vt 0.211381 0.212235
vt 0.375000 0.123356
vt 0.625000 0.123356
vt 0.788619 0.123356
vt 0.831164 0.100081
vt 0.625000 0.649919
vt 0.875000 0.100081
vt 0.125000 0.100081
vt 0.375000 0.649919
vt 0.168835 0.100081
vt 0.211381 0.123356
vt 0.831164 0.050040
vt 0.625000 0.624957
vt 0.875000 0.125043
vt 0.831164 0.125043
vt 0.788619 0.125043
vt 0.625000 0.148318
vt 0.375000 0.148318
vt 0.211381 0.125043
vt 0.168836 0.125043
vt 0.125000 0.125043
vt 0.375000 0.624957
vt 0.625000 0.581361
vt 0.375000 0.273276
vt 0.625000 0.273276
vt 0.788619 0.273276
vt 0.788619 0.235510
vt 0.788619 0.148318
vt 0.788619 0.123356
vt 0.788619 0.023276
vt 0.625000 0.023276
vt 0.375000 0.023276
vt 0.211381 0.023276
vt 0.211381 0.123356
vt 0.211381 0.148318
vt 0.211381 0.235510
vt 0.211381 0.273276
vn 0.000000 0.000000 1.000000
vn 0.000000 0.000000 1.000000
vn 0.000000 0.000000 1.000000
vn 0.000000 0.000000 1.000000
vn 0.000000 1.000000 0.000000
vn 0.000000 1.000000 0.000000
vn 0.000000 1.000000 0.000000
vn 0.000000 1.000000 0.000000
vn 0.000000 0.000000 -1.000000
vn 0.000000 0.000000 -1.000000
vn 0.000000 0.000000 -1.000000
vn 0.000000 0.000000 -1.000000
vn 0.000000 -1.000000 0.000000
vn 0.000000 -1.000000 0.000000
vn 0.000000 -1.000000 0.000000
vn 0.000000 -1.000000 0.000000
vn 1.000000 0.000000 0.000000
vn 1.000000 0.000000 0.000000
vn 1.000000 0.000000 0.000000
vn 1.000000 0.000000 0.000000
vn -1.000000 0.000000 0.000000
vn -1.000000 0.000000 0.000000
vn -1.000000 0.000000 0.000000
vn -1.000000 0.000000 0.000000
vn 0.000000 0.000000 1.000000
vn 0.000000 0.000000 1.000000
vn 0.000000 0.000000 1.000000
vn 0.000000 0.000000 1.000000
vn 1.000000 0.000000 0.000000
vn 1.000000 0.000000 0.000000
vn 1.000000 0.000000 0.000000
vn 1.000000 0.000000 0.000000
vn 0.000000 0.000000 -1.000000
vn 0.000000 0.000000 -1.000000
vn 0.000000 0.000000 -1.000000
vn 0.000000 0.000000 -1.000000
vn -1.000000 0.000000 0.000000
vn -1.000000 0.000000 0.000000
vn -1.000000 0.000000 0.000000
vn -1.000000 0.000000 0.000000
vn 0.000000 1.000000 0.000000
vn 0.000000 1.000000 0.000000
vn 1.000000 0.000000 0.000000
vn 1.000000 0.000000 0.000000
vn 1.000000 0.000000 0.000000
vn 1.000000 0.000000 0.000000
vn 0.000000 -1.000000 0.000000
vn 0.000000 -1.000000 0.000000
vn -1.000000 0.000000 0.000000
vn -1.000000 0.000000 0.000000
vn -1.000000 0.000000 0.000000
vn -1.000000 0.000000 0.000000
vn 0.000000 1.000000 0.000000
vn 0.000000 1.000000 0.000000
vn 1.000000 0.000000 0.000000
vn 1.000000 0.000000 0.000000
vn 1.000000 0.000000 0.000000
vn 1.000000 0.000000 0.000000
vn 1.000000 0.000000 0.000000
vn 1.000000 0.000000 0.000000
vn 1.000000 0.000000 0.000000
vn 1.000000 0.000000 0.000000
vn 0.000000 -1.000000 0.000000
vn 0.000000 -1.000000 0.000000
vn -1.000000 0.000000 0.000000
vn -1.000000 0.000000 0.000000
vn -1.000000 0.000000 0.000000
vn -1.000000 0.000000 0.000000
vn -1.000000 0.000000 0.000000
vn -1.000000 0.000000 0.000000
vn -1.000000 0.000000 0.000000
vn -1.000000 0.000000 0.000000
vn 0.000000 0.000000 1.000000
vn 0.000000 0.000000 1.000000
vn 1.000000 0.000000 0.000000
vn 1.000000 0.000000 0.000000
vn 1.000000 0.000000 0.000000
vn 1.000000 0.000000 0.000000
vn 1.000000 0.000000 0.000000
vn 0.000000 0.000000 -1.000000
vn 0.000000 0.000000 -1.000000
vn -1.000000 0.000000 0.000000
vn -1.000000 0.000000 0.000000
vn -1.000000 0.000000 0.000000
vn -1.000000 0.000000 0.000000
vn 0.000000 0.000000 -1.000000
s 1
g pCube7
usemtl initialShadingGroup
f 9/13/1 10/14/2 44/60/3 43/59/4
s 2
f 13/20/5 14/21/6 6/4/7 5/3/8
s 3
f 5/3/9 6/4/10 11/15/11 12/18/12
s 4
f 7/5/13 8/6/14 16/24/15 17/27/16
s 5
f 14/22/17 15/23/18 11/16/19 6/10/20
s 6
f 12/17/21 18/28/22 13/19/23 5/12/24
s 1
f 25/37/25 26/38/26 37/52/27 38/53/28
s 5
f 34/49/29 35/50/30 28/40/31 29/42/32
s 3
f 41/57/33 34/48/34 29/41/35 30/44/36
s 6
f 30/43/37 31/45/38 40/55/39 41/56/40
s 2
f 19/30/41 20/31/42 14/21/6 13/20/5
s 5
f 20/32/43 21/33/44 15/23/18 14/22/17
f 35/50/30 36/51/45 27/39/46 28/40/31
s 4
f 17/27/16 16/24/15 22/34/47 23/35/48
s 6
f 39/54/49 40/55/39 31/45/38 32/46/50
f 13/19/23 18/28/22 24/36/51 19/29/52
s 2
f 3/1/53 4/2/54 20/31/42 19/30/41
s 10
f 10/14/55 46/62/56 45/61/57 44/60/58
f 26/38/59 48/64/60 47/63/61 37/52/62
s 4
f 23/35/48 22/34/47 2/8/63 1/7/64
s 12
f 38/53/65 54/70/66 53/69/67 25/37/68
f 56/72/69 55/71/70 9/13/71 43/59/72
s 1
f 51/67/73 50/66/74 26/38/26 25/37/25
s 10
f 50/66/75 49/65/76 48/39/60 26/38/59
s 5
f 29/42/32 28/40/31 33/47/77 16/25/78 8/9/79
s 3
f 30/44/36 29/41/35 8/6/80 7/5/81
s 6
f 7/11/82 17/26/83 31/45/38 30/43/37
s 12
f 25/37/68 53/46/67 52/68/84 51/67/85
s 5
f 21/33/44 36/51/45 35/50/30 15/23/18
s 10
f 37/52/62 47/63/61 46/62/56 10/14/55
s 1
f 38/53/28 37/52/27 10/14/2 9/13/1
s 12
f 55/71/70 54/70/66 38/53/65 9/13/71
s 6
f 18/28/22 40/55/39 39/54/49 24/36/51
s 3
f 12/18/12 11/15/11 42/58/86 34/48/34 41/57/33
