# This file uses centimeters as units for non-parametric coordinates.

mtllib terraceria.mtl
g default
v 28.219675 4.580603 10.872448
v 28.661623 4.580603 10.872448
v 29.103569 4.580603 10.872448
v 29.545515 4.580603 10.872448
v 29.987463 4.580603 10.872448
v 30.429409 4.580603 10.872448
v 30.871355 4.580603 10.872448
v 31.313303 4.580603 10.872448
v 31.755249 4.580603 10.872448
v 32.197197 4.580603 10.872448
v 32.639141 4.580603 10.872448
v 28.219675 4.580603 9.819494
v 28.661623 4.580603 9.819494
v 29.103569 4.580603 9.819494
v 29.545515 4.580603 9.819494
v 29.987463 4.580603 9.819494
v 30.429409 4.580603 9.819494
v 30.871355 4.580603 9.819494
v 31.313303 4.580603 9.819494
v 31.755249 4.580603 9.819494
v 32.197197 4.580603 9.819494
v 32.639141 4.580603 9.819494
v 28.219675 4.580603 8.766540
v 28.661623 4.580603 8.766540
v 29.103569 4.580603 8.766540
v 29.545515 4.580603 8.766540
v 29.987463 4.580603 8.766540
v 30.429409 4.580603 8.766540
v 30.871355 4.580603 8.766540
v 31.313303 4.580603 8.766540
v 31.755249 4.580603 8.766540
v 32.197197 4.580603 8.766540
v 32.639141 4.580603 8.766540
v 28.219675 4.580603 7.713585
v 28.661623 4.580603 7.713585
v 29.103569 4.580603 7.713585
v 29.545515 4.580603 7.713585
v 29.987463 4.580603 7.713585
v 30.429409 4.580603 7.713585
v 30.871355 4.580603 7.713585
v 31.313303 4.580603 7.713585
v 31.755249 4.580603 7.713585
v 32.197197 4.580603 7.713585
v 32.639141 4.580603 7.713585
v 28.219675 4.580603 6.660631
v 28.661623 4.580603 6.660631
v 29.103569 4.580603 6.660631
v 29.545515 4.580603 6.660631
v 29.987463 4.580603 6.660631
v 30.429409 4.580603 6.660631
v 30.871355 4.580603 6.660631
v 31.313303 4.580603 6.660631
v 31.755249 4.580603 6.660631
v 32.197197 4.580603 6.660631
v 32.639141 4.580603 6.660631
v 30.871355 4.580603 5.607677
v 31.313303 4.580603 5.607677
v 31.755249 4.580603 5.607677
v 32.197197 4.580603 5.607677
v 32.639141 4.580603 5.607677
v 30.871355 4.580603 4.554723
v 31.313303 4.580603 4.554723
v 31.755249 4.580603 4.554723
v 32.197197 4.580603 4.554723
v 32.639141 4.580603 4.554723
v 30.871355 4.580603 3.501769
v 31.313303 4.580603 3.501769
v 31.755249 4.580603 3.501769
v 32.197197 4.580603 3.501769
v 32.639141 4.580603 3.501769
v 30.871355 4.580603 2.448814
v 31.313303 4.580603 2.448814
v 31.755249 4.580603 2.448814
v 32.197197 4.580603 2.448814
v 32.639141 4.580603 2.448814
v 30.871355 4.580603 1.395860
v 31.313303 4.580603 1.395860
v 31.755249 4.580603 1.395860
v 32.197197 4.580603 1.395860
v 32.639141 4.580603 1.395860
v 30.871355 4.580603 0.342906
v 31.313303 4.580603 0.342906
v 31.755249 4.580603 0.342906
v 32.197197 4.580603 0.342906
v 32.639141 4.580603 0.342906
v 28.219675 4.580603 5.607677
v 28.661623 4.580603 5.607677
v 29.103569 4.580603 5.607677
v 29.545515 4.580603 5.607677
v 29.987463 4.580603 5.607677
v 30.429409 4.580603 5.607677
v 30.429409 4.580603 4.554723
v 30.429409 4.580603 3.501769
v 30.429409 4.580603 2.448814
v 30.429409 4.580603 1.395860
v 30.429409 4.580603 0.342906
v 28.219675 4.580603 5.607677
v 28.661623 4.580603 5.607677
v 29.103569 4.580603 5.607677
v 29.545515 4.580603 5.607677
v 29.987463 4.580603 5.607677
v 30.429409 4.580603 5.607677
v 28.219675 4.580603 4.554723
v 28.661623 4.580603 4.554723
v 29.103569 4.580603 4.554723
v 29.545515 4.580603 4.554723
v 29.987463 4.580603 4.554723
v 30.429409 4.580603 4.554723
v 28.219675 4.580603 3.501769
v 28.661623 4.580603 3.501769
v 29.103569 4.580603 3.501769
v 29.545515 4.580603 3.501769
v 29.987463 4.580603 3.501769
v 30.429409 4.580603 3.501769
v 28.219675 4.580603 2.448814
v 28.661623 4.580603 2.448814
v 29.103569 4.580603 2.448814
v 29.545515 4.580603 2.448814
v 29.987463 4.580603 2.448814
v 30.429409 4.580603 2.448814
v 28.219675 4.580603 1.395860
v 28.661623 4.580603 1.395860
v 29.103569 4.580603 1.395860
v 29.545515 4.580603 1.395860
v 29.987463 4.580603 1.395860
v 30.429409 4.580603 1.395860
v 28.219675 4.580603 0.342906
v 28.661623 4.580603 0.342906
v 29.103569 4.580603 0.342906
v 29.545515 4.580603 0.342906
v 29.987463 4.580603 0.342906
v 30.429409 4.580603 0.342906
vt 0.007518 0.001376
vt 0.204408 0.001376
vt 0.204408 0.200077
vt 0.007518 0.200077
vt 0.401299 0.001376
vt 0.401299 0.200077
vt 0.598190 0.001376
vt 0.598190 0.200077
vt 0.795081 0.001376
vt 0.795081 0.200077
vt 0.991972 0.001376
vt 0.991972 0.200077
vt 1.188863 0.001376
vt 1.188863 0.200077
vt 1.385754 0.001376
vt 1.385754 0.200077
vt 1.582645 0.001376
vt 1.582645 0.200077
vt 1.779536 0.001376
vt 1.779536 0.200077
vt 1.976426 0.001376
vt 1.976426 0.200077
vt 0.204408 0.398779
vt 0.007518 0.398779
vt 0.401299 0.398779
vt 0.598190 0.398779
vt 0.795081 0.398779
vt 0.991972 0.398779
vt 1.188863 0.398779
vt 1.385754 0.398779
vt 1.582645 0.398779
vt 1.779536 0.398779
vt 1.976426 0.398779
vt 0.204408 0.597480
vt 0.007518 0.597480
vt 0.401299 0.597480
vt 0.598190 0.597480
vt 0.795081 0.597480
vt 0.991972 0.597480
vt 1.188863 0.597480
vt 1.385754 0.597480
vt 1.582645 0.597480
vt 1.779536 0.597480
vt 1.976426 0.597480
vt 0.204408 0.796182
vt 0.007518 0.796182
vt 0.401299 0.796182
vt 0.598190 0.796182
vt 0.795081 0.796182
vt 0.991972 0.796182
vt 1.188863 0.796182
vt 1.385754 0.796182
vt 1.582645 0.796182
vt 1.779536 0.796182
vt 1.976426 0.796182
vt 0.204408 0.994883
vt 0.007518 0.994883
vt 0.401299 0.994883
vt 0.598190 0.994883
vt 0.795081 0.994883
vt 0.991972 0.994883
vt 1.188863 0.994883
vt 0.991972 0.994883
vt 1.385754 0.994883
vt 1.582645 0.994883
vt 1.779536 0.994883
vt 1.976426 0.994883
vt 1.188863 1.193584
vt 0.991972 1.193584
vt 1.385754 1.193584
vt 1.582645 1.193584
vt 1.779536 1.193584
vt 1.976426 1.193584
vt 1.188863 1.392285
vt 0.991972 1.392285
vt 1.385754 1.392285
vt 1.582645 1.392285
vt 1.779536 1.392285
vt 1.976426 1.392285
vt 1.188863 1.590987
vt 0.991972 1.590987
vt 1.385754 1.590987
vt 1.582645 1.590987
vt 1.779536 1.590987
vt 1.976426 1.590987
vt 1.188863 1.789689
vt 0.991972 1.789689
vt 1.385754 1.789689
vt 1.582645 1.789689
vt 1.779536 1.789689
vt 1.976426 1.789689
vt 1.188863 1.988390
vt 0.991972 1.988390
vt 1.385754 1.988390
vt 1.582645 1.988390
vt 1.779536 1.988390
vt 1.976426 1.988390
vt 0.007518 0.994883
vt 0.204408 0.994883
vt 0.204408 1.193584
vt 0.007518 1.193584
vt 0.401299 0.994883
vt 0.401299 1.193584
vt 0.598190 0.994883
vt 0.598190 1.193584
vt 0.795081 0.994883
vt 0.795081 1.193584
vt 0.991972 0.994883
vt 0.991972 1.193584
vt 0.204408 1.392285
vt 0.007518 1.392285
vt 0.401299 1.392285
vt 0.598190 1.392285
vt 0.795081 1.392285
vt 0.991972 1.392285
vt 0.204408 1.590987
vt 0.007518 1.590987
vt 0.401299 1.590987
vt 0.598190 1.590987
vt 0.795081 1.590987
vt 0.991972 1.590987
vt 0.204408 1.789689
vt 0.007518 1.789689
vt 0.401299 1.789689
vt 0.598190 1.789689
vt 0.795081 1.789689
vt 0.991972 1.789689
vt 0.204408 1.988390
vt 0.007518 1.988390
vt 0.401299 1.988390
vt 0.598190 1.988390
vt 0.795081 1.988390
vt 0.991972 1.988390
vn 0.000000 1.000000 0.000000
vn 0.000000 1.000000 0.000000
vn 0.000000 1.000000 0.000000
vn 0.000000 1.000000 0.000000
vn 0.000000 1.000000 0.000000
vn 0.000000 1.000000 0.000000
vn 0.000000 1.000000 0.000000
vn 0.000000 1.000000 0.000000
vn 0.000000 1.000000 0.000000
vn 0.000000 1.000000 0.000000
vn 0.000000 1.000000 0.000000
vn 0.000000 1.000000 0.000000
vn 0.000000 1.000000 0.000000
vn 0.000000 1.000000 0.000000
vn 0.000000 1.000000 0.000000
vn 0.000000 1.000000 0.000000
vn 0.000000 1.000000 0.000000
vn 0.000000 1.000000 0.000000
vn 0.000000 1.000000 0.000000
vn 0.000000 1.000000 0.000000
vn 0.000000 1.000000 0.000000
vn 0.000000 1.000000 0.000000
vn 0.000000 1.000000 0.000000
vn 0.000000 1.000000 0.000000
vn 0.000000 1.000000 0.000000
vn 0.000000 1.000000 0.000000
vn 0.000000 1.000000 0.000000
vn 0.000000 1.000000 0.000000
vn 0.000000 1.000000 0.000000
vn 0.000000 1.000000 0.000000
vn 0.000000 1.000000 0.000000
vn 0.000000 1.000000 0.000000
vn 0.000000 1.000000 0.000000
vn 0.000000 1.000000 0.000000
vn 0.000000 1.000000 0.000000
vn 0.000000 1.000000 0.000000
vn 0.000000 1.000000 0.000000
vn 0.000000 1.000000 0.000000
vn 0.000000 1.000000 0.000000
vn 0.000000 1.000000 0.000000
vn 0.000000 1.000000 0.000000
vn 0.000000 1.000000 0.000000
vn 0.000000 1.000000 0.000000
vn 0.000000 1.000000 0.000000
vn 0.000000 1.000000 0.000000
vn 0.000000 1.000000 0.000000
vn 0.000000 1.000000 0.000000
vn 0.000000 1.000000 0.000000
vn 0.000000 1.000000 0.000000
vn 0.000000 1.000000 0.000000
vn 0.000000 1.000000 0.000000
vn 0.000000 1.000000 0.000000
vn 0.000000 1.000000 0.000000
vn 0.000000 1.000000 0.000000
vn 0.000000 1.000000 0.000000
vn 0.000000 1.000000 0.000000
vn 0.000000 1.000000 0.000000
vn 0.000000 1.000000 0.000000
vn 0.000000 1.000000 0.000000
vn 0.000000 1.000000 0.000000
vn 0.000000 1.000000 0.000000
vn 0.000000 1.000000 0.000000
vn 0.000000 1.000000 0.000000
vn 0.000000 1.000000 0.000000
vn 0.000000 1.000000 0.000000
vn 0.000000 1.000000 0.000000
vn 0.000000 1.000000 0.000000
vn 0.000000 1.000000 0.000000
vn 0.000000 1.000000 0.000000
vn 0.000000 1.000000 0.000000
vn 0.000000 1.000000 0.000000
vn 0.000000 1.000000 0.000000
vn 0.000000 1.000000 0.000000
vn 0.000000 1.000000 0.000000
vn 0.000000 1.000000 0.000000
vn 0.000000 1.000000 0.000000
vn 0.000000 1.000000 0.000000
vn 0.000000 1.000000 0.000000
vn 0.000000 1.000000 0.000000
vn 0.000000 1.000000 0.000000
vn 0.000000 1.000000 0.000000
vn 0.000000 1.000000 0.000000
vn 0.000000 1.000000 0.000000
vn 0.000000 1.000000 0.000000
vn 0.000000 1.000000 0.000000
vn 0.000000 1.000000 0.000000
vn 0.000000 1.000000 0.000000
vn 0.000000 1.000000 0.000000
vn 0.000000 1.000000 0.000000
vn 0.000000 1.000000 0.000000
vn 0.000000 1.000000 0.000000
vn 0.000000 1.000000 0.000000
vn 0.000000 1.000000 0.000000
vn 0.000000 1.000000 0.000000
vn 0.000000 1.000000 0.000000
vn 0.000000 1.000000 0.000000
vn 0.000000 1.000000 0.000000
vn 0.000000 1.000000 0.000000
vn 0.000000 1.000000 0.000000
vn 0.000000 1.000000 0.000000
vn 0.000000 1.000000 0.000000
vn 0.000000 1.000000 0.000000
vn 0.000000 1.000000 0.000000
vn 0.000000 1.000000 0.000000
vn 0.000000 1.000000 0.000000
vn 0.000000 1.000000 0.000000
vn 0.000000 1.000000 0.000000
vn 0.000000 1.000000 0.000000
vn 0.000000 1.000000 0.000000
vn 0.000000 1.000000 0.000000
vn 0.000000 1.000000 0.000000
vn 0.000000 1.000000 0.000000
vn 0.000000 1.000000 0.000000
vn 0.000000 1.000000 0.000000
vn 0.000000 1.000000 0.000000
vn 0.000000 1.000000 0.000000
vn 0.000000 1.000000 0.000000
vn 0.000000 1.000000 0.000000
vn 0.000000 1.000000 0.000000
vn 0.000000 1.000000 0.000000
vn 0.000000 1.000000 0.000000
vn 0.000000 1.000000 0.000000
vn 0.000000 1.000000 0.000000
vn 0.000000 1.000000 0.000000
vn 0.000000 1.000000 0.000000
vn 0.000000 1.000000 0.000000
vn 0.000000 1.000000 0.000000
vn 0.000000 1.000000 0.000000
vn 0.000000 1.000000 0.000000
vn 0.000000 1.000000 0.000000
vn 0.000000 1.000000 0.000000
vn 0.000000 1.000000 0.000000
s 1
g polySurface1
usemtl lambert10SG
f 1/1/1 2/2/2 13/3/3 12/4/4
f 2/2/2 3/5/5 14/6/6 13/3/3
f 3/5/5 4/7/7 15/8/8 14/6/6
f 4/7/7 5/9/9 16/10/10 15/8/8
f 5/9/9 6/11/11 17/12/12 16/10/10
f 6/11/11 7/13/13 18/14/14 17/12/12
f 7/13/13 8/15/15 19/16/16 18/14/14
f 8/15/15 9/17/17 20/18/18 19/16/16
f 9/17/17 10/19/19 21/20/20 20/18/18
f 10/19/19 11/21/21 22/22/22 21/20/20
f 12/4/4 13/3/3 24/23/23 23/24/24
f 13/3/3 14/6/6 25/25/25 24/23/23
f 14/6/6 15/8/8 26/26/26 25/25/25
f 15/8/8 16/10/10 27/27/27 26/26/26
f 16/10/10 17/12/12 28/28/28 27/27/27
f 17/12/12 18/14/14 29/29/29 28/28/28
f 18/14/14 19/16/16 30/30/30 29/29/29
f 19/16/16 20/18/18 31/31/31 30/30/30
f 20/18/18 21/20/20 32/32/32 31/31/31
f 21/20/20 22/22/22 33/33/33 32/32/32
f 23/24/24 24/23/23 35/34/34 34/35/35
f 24/23/23 25/25/25 36/36/36 35/34/34
f 25/25/25 26/26/26 37/37/37 36/36/36
f 26/26/26 27/27/27 38/38/38 37/37/37
f 27/27/27 28/28/28 39/39/39 38/38/38
f 28/28/28 29/29/29 40/40/40 39/39/39
f 29/29/29 30/30/30 41/41/41 40/40/40
f 30/30/30 31/31/31 42/42/42 41/41/41
f 31/31/31 32/32/32 43/43/43 42/42/42
f 32/32/32 33/33/33 44/44/44 43/43/43
f 34/35/35 35/34/34 46/45/45 45/46/46
f 35/34/34 36/36/36 47/47/47 46/45/45
f 36/36/36 37/37/37 48/48/48 47/47/47
f 37/37/37 38/38/38 49/49/49 48/48/48
f 38/38/38 39/39/39 50/50/50 49/49/49
f 39/39/39 40/40/40 51/51/51 50/50/50
f 40/40/40 41/41/41 52/52/52 51/51/51
f 41/41/41 42/42/42 53/53/53 52/52/52
f 42/42/42 43/43/43 54/54/54 53/53/53
f 43/43/43 44/44/44 55/55/55 54/54/54
f 45/46/46 46/45/45 87/56/56 86/57/57
f 46/45/45 47/47/47 88/58/58 87/56/56
f 47/47/47 48/48/48 89/59/59 88/58/58
f 48/48/48 49/49/49 90/60/60 89/59/59
f 49/49/49 50/50/50 91/61/61 90/60/60
f 50/50/50 51/51/51 56/62/62 91/63/61
f 51/51/51 52/52/52 57/64/63 56/62/62
f 52/52/52 53/53/53 58/65/64 57/64/63
f 53/53/53 54/54/54 59/66/65 58/65/64
f 54/54/54 55/55/55 60/67/66 59/66/65
f 91/61/61 56/62/62 61/68/67 92/69/68
f 56/62/62 57/64/63 62/70/69 61/68/67
f 57/64/63 58/65/64 63/71/70 62/70/69
f 58/65/64 59/66/65 64/72/71 63/71/70
f 59/66/65 60/67/66 65/73/72 64/72/71
f 92/69/68 61/68/67 66/74/73 93/75/74
f 61/68/67 62/70/69 67/76/75 66/74/73
f 62/70/69 63/71/70 68/77/76 67/76/75
f 63/71/70 64/72/71 69/78/77 68/77/76
f 64/72/71 65/73/72 70/79/78 69/78/77
f 93/75/74 66/74/73 71/80/79 94/81/80
f 66/74/73 67/76/75 72/82/81 71/80/79
f 67/76/75 68/77/76 73/83/82 72/82/81
f 68/77/76 69/78/77 74/84/83 73/83/82
f 69/78/77 70/79/78 75/85/84 74/84/83
f 94/81/80 71/80/79 76/86/85 95/87/86
f 71/80/79 72/82/81 77/88/87 76/86/85
f 72/82/81 73/83/82 78/89/88 77/88/87
f 73/83/82 74/84/83 79/90/89 78/89/88
f 74/84/83 75/85/84 80/91/90 79/90/89
f 95/87/86 76/86/85 81/92/91 96/93/92
f 76/86/85 77/88/87 82/94/93 81/92/91
f 77/88/87 78/89/88 83/95/94 82/94/93
f 78/89/88 79/90/89 84/96/95 83/95/94
f 79/90/89 80/91/90 85/97/96 84/96/95
s 2
f 97/98/97 98/99/98 104/100/99 103/101/100
f 98/99/98 99/102/101 105/103/102 104/100/99
f 99/102/101 100/104/103 106/105/104 105/103/102
f 100/104/103 101/106/105 107/107/106 106/105/104
f 101/106/105 102/108/107 108/109/108 107/107/106
f 103/101/100 104/100/99 110/110/109 109/111/110
f 104/100/99 105/103/102 111/112/111 110/110/109
f 105/103/102 106/105/104 112/113/112 111/112/111
f 106/105/104 107/107/106 113/114/113 112/113/112
f 107/107/106 108/109/108 114/115/114 113/114/113
f 109/111/110 110/110/109 116/116/115 115/117/116
f 110/110/109 111/112/111 117/118/117 116/116/115
f 111/112/111 112/113/112 118/119/118 117/118/117
f 112/113/112 113/114/113 119/120/119 118/119/118
f 113/114/113 114/115/114 120/121/120 119/120/119
f 115/117/116 116/116/115 122/122/121 121/123/122
f 116/116/115 117/118/117 123/124/123 122/122/121
f 117/118/117 118/119/118 124/125/124 123/124/123
f 118/119/118 119/120/119 125/126/125 124/125/124
f 119/120/119 120/121/120 126/127/126 125/126/125
f 121/123/122 122/122/121 128/128/127 127/129/128
f 122/122/121 123/124/123 129/130/129 128/128/127
f 123/124/123 124/125/124 130/131/130 129/130/129
f 124/125/124 125/126/125 131/132/131 130/131/130
f 125/126/125 126/127/126 132/133/132 131/132/131
