# This file uses centimeters as units for non-parametric coordinates.

mtllib ManecillaH.mtl
g default
v -0.711878 -1.265128 0.218983
v -1.054214 -0.898436 0.218983
v -1.234552 -0.449168 0.218983
v -1.261957 -0.178769 0.218983
v -1.234356 0.093256 0.218983
v -1.755257 0.475610 0.218983
v -1.794069 0.517580 0.218983
v -1.813892 0.569053 0.218983
v -1.813813 0.624086 0.218983
v -1.804214 0.655469 0.218983
v -1.787352 0.684860 0.218983
v -1.300181 1.348559 0.218983
v -1.262154 1.384850 0.218983
v -1.215725 1.405247 0.218983
v -1.160872 1.408549 0.218983
v -1.124711 1.399327 0.218983
v -1.090932 1.380654 0.218983
v -0.570031 0.998299 0.218983
v -0.112591 1.153511 0.218983
v 0.370368 1.137995 0.218983
v 0.634647 1.051377 0.218983
v 0.882502 0.906977 0.218983
v 1.224838 0.540286 0.218983
v 1.405177 0.091018 0.218983
v 1.432581 -0.179381 0.218983
v 1.404979 -0.451409 0.218983
v 5.472985 -3.437427 0.218983
v 5.511798 -3.479396 0.218983
v 5.531619 -3.530870 0.218983
v 5.531542 -3.585904 0.218983
v 5.521942 -3.617285 0.218983
v 5.505080 -3.646677 0.218983
v 5.017909 -4.310376 0.218983
v 4.979882 -4.346667 0.218983
v 4.933452 -4.367063 0.218983
v 4.878600 -4.370366 0.218983
v 4.842439 -4.361145 0.218983
v 4.808659 -4.342472 0.218983
v 0.740654 -1.356452 0.218983
v 0.283216 -1.511660 0.218983
v -0.199744 -1.496144 0.218983
v -0.464023 -1.409529 0.218983
v -0.711878 -1.265128 -0.088966
v -1.054214 -0.898436 -0.088966
v -1.234552 -0.449168 -0.088966
v -1.261957 -0.178769 -0.088966
v -1.234356 0.093256 -0.088966
v -1.755257 0.475610 -0.088966
v -1.794069 0.517580 -0.088966
v -1.813892 0.569053 -0.088966
v -1.813813 0.624086 -0.088966
v -1.804214 0.655469 -0.088966
v -1.787352 0.684860 -0.088966
v -1.300181 1.348559 -0.088966
v -1.262154 1.384850 -0.088966
v -1.215725 1.405247 -0.088966
v -1.160872 1.408549 -0.088966
v -1.124711 1.399327 -0.088966
v -1.090932 1.380654 -0.088966
v -0.570031 0.998299 -0.088966
v -0.112591 1.153511 -0.088966
v 0.370368 1.137995 -0.088966
v 0.634647 1.051377 -0.088966
v 0.882502 0.906977 -0.088966
v 1.224838 0.540286 -0.088966
v 1.405177 0.091018 -0.088966
v 1.432581 -0.179381 -0.088966
v 1.404979 -0.451409 -0.088966
v 5.472985 -3.437427 -0.088966
v 5.511798 -3.479396 -0.088966
v 5.531619 -3.530870 -0.088966
v 5.531542 -3.585904 -0.088966
v 5.521942 -3.617285 -0.088966
v 5.505080 -3.646677 -0.088966
v 5.017909 -4.310376 -0.088966
v 4.979882 -4.346667 -0.088966
v 4.933452 -4.367063 -0.088966
v 4.878600 -4.370366 -0.088966
v 4.842439 -4.361145 -0.088966
v 4.808659 -4.342472 -0.088966
v 0.740654 -1.356452 -0.088966
v 0.283216 -1.511660 -0.088966
v -0.199744 -1.496144 -0.088966
v -0.464023 -1.409529 -0.088966
v -1.234356 0.093256 0.218983
v -1.794069 0.517580 0.218983
v -1.813892 0.569053 0.218983
v -1.813813 0.624086 0.218983
v -1.804214 0.655469 0.218983
v -1.262154 1.384850 0.218983
v -0.570031 0.998299 0.218983
v 1.405177 0.091018 0.218983
v 1.404979 -0.451409 0.218983
v 5.531619 -3.530870 0.218983
v 5.531542 -3.585904 0.218983
v 5.505080 -3.646677 0.218983
v 5.017909 -4.310376 0.218983
v 4.878600 -4.370366 0.218983
v 4.842439 -4.361145 0.218983
v 4.808659 -4.342472 0.218983
v 0.740654 -1.356452 0.218983
v -0.199744 -1.496144 0.218983
v -0.464023 -1.409529 0.218983
v -1.234356 0.093256 -0.088966
v -1.794069 0.517580 -0.088966
v -1.813892 0.569053 -0.088966
v -1.813813 0.624086 -0.088966
v -1.804214 0.655469 -0.088966
v -1.262154 1.384850 -0.088966
v -0.570031 0.998299 -0.088966
v 1.405177 0.091018 -0.088966
v 1.404979 -0.451409 -0.088966
v 5.531619 -3.530870 -0.088966
v 5.531542 -3.585904 -0.088966
v 5.505080 -3.646677 -0.088966
v 5.017909 -4.310376 -0.088966
v 4.878600 -4.370366 -0.088966
v 4.842439 -4.361145 -0.088966
v 4.808659 -4.342472 -0.088966
v 0.740654 -1.356452 -0.088966
v -0.199744 -1.496144 -0.088966
v -0.464023 -1.409529 -0.088966
vt 0.025266 1.000000
vt 0.025266 0.000000
vt 0.000000 0.000000
vt 0.000000 1.000000
vt 0.049247 1.000000
vt 0.049247 0.000000
vt 0.062454 1.000000
vt 0.062454 0.000000
vt 0.075557 1.000000
vt 0.075557 0.000000
vt 0.108176 1.000000
vt 0.108176 0.000000
vt 0.111055 1.000000
vt 0.111055 0.000000
vt 0.113785 1.000000
vt 0.113785 0.000000
vt 0.116440 1.000000
vt 0.116440 0.000000
vt 0.117995 1.000000
vt 0.117995 0.000000
vt 0.119589 1.000000
vt 0.119589 0.000000
vt 0.158283 1.000000
vt 0.158283 0.000000
vt 0.160760 1.000000
vt 0.160760 0.000000
vt 0.163188 1.000000
vt 0.163188 0.000000
vt 0.165886 1.000000
vt 0.165886 0.000000
vt 0.167752 1.000000
vt 0.167752 0.000000
vt 0.169699 1.000000
vt 0.169699 0.000000
vt 0.202318 1.000000
vt 0.202318 0.000000
vt 0.225588 1.000000
vt 0.225588 0.000000
vt 0.249455 1.000000
vt 0.249455 0.000000
vt 0.263404 1.000000
vt 0.263404 0.000000
vt 0.277874 1.000000
vt 0.277874 0.000000
vt 0.303140 1.000000
vt 0.303140 0.000000
vt 0.327122 1.000000
vt 0.327122 0.000000
vt 0.340328 1.000000
vt 0.340328 0.000000
vt 0.353431 1.000000
vt 0.353431 0.000000
vt 0.608176 1.000000
vt 0.608176 0.000000
vt 0.611055 1.000000
vt 0.611055 0.000000
vt 0.613785 1.000000
vt 0.613785 0.000000
vt 0.616440 1.000000
vt 0.616440 0.000000
vt 0.617995 1.000000
vt 0.617995 0.000000
vt 0.619589 1.000000
vt 0.619589 0.000000
vt 0.658283 1.000000
vt 0.658283 0.000000
vt 0.660760 1.000000
vt 0.660760 0.000000
vt 0.663189 1.000000
vt 0.663189 0.000000
vt 0.665886 1.000000
vt 0.665886 0.000000
vt 0.667752 1.000000
vt 0.667752 0.000000
vt 0.669699 1.000000
vt 0.669699 0.000000
vt 0.924444 1.000000
vt 0.924444 0.000000
vt 0.947713 1.000000
vt 0.947713 0.000000
vt 0.971581 1.000000
vt 0.971581 0.000000
vt 0.985530 1.000000
vt 0.985530 0.000000
vt 1.000000 1.000000
vt 1.000000 0.000000
vt 0.003740 0.724825
vt 0.013653 0.693666
vt 0.044327 0.646874
vt 0.088325 0.614633
vt 0.095532 0.017514
vt 0.096131 0.012991
vt 0.097718 0.008914
vt 0.101648 0.003960
vt 0.106522 0.001018
vt 0.112237 0.000000
vt 0.202935 0.001095
vt 0.206639 0.001589
vt 0.210036 0.002912
vt 0.214883 0.006817
vt 0.218095 0.012351
vt 0.219212 0.019007
vt 0.212005 0.616126
vt 0.237764 0.632853
vt 0.259731 0.654668
vt 0.287287 0.703667
vt 0.296831 0.762121
vt 0.293091 0.795834
vt 0.283178 0.826993
vt 0.252505 0.873785
vt 0.208506 0.906026
vt 0.207583 0.982486
vt 0.206985 0.987009
vt 0.205397 0.991086
vt 0.201468 0.996040
vt 0.196594 0.998982
vt 0.190879 1.000000
vt 0.100180 0.998905
vt 0.096476 0.998411
vt 0.093079 0.997088
vt 0.088233 0.993183
vt 0.085020 0.987649
vt 0.083903 0.980993
vt 0.084826 0.904533
vt 0.059067 0.887806
vt 0.037100 0.865991
vt 0.009545 0.816992
vt 0.000000 0.758538
vt 0.638954 0.275722
vt 0.639514 0.213965
vt 0.630523 0.181163
vt 0.615137 0.151133
vt 0.657853 0.078798
vt 0.660430 0.071847
vt 0.660398 0.064816
vt 0.657918 0.058445
vt 0.655405 0.055326
vt 0.652147 0.052828
vt 0.566342 0.002158
vt 0.560341 0.000000
vt 0.554088 0.000136
vt 0.547633 0.002706
vt 0.543890 0.005720
vt 0.540845 0.009702
vt 0.498129 0.082037
vt 0.438573 0.088677
vt 0.383748 0.116470
vt 0.357255 0.140729
vt 0.335245 0.170800
vt 0.312354 0.231709
vt 0.311793 0.293465
vt 0.320784 0.326267
vt 0.336171 0.356297
vt 0.002578 0.921202
vt 0.000000 0.928153
vt 0.000032 0.935184
vt 0.002512 0.941555
vt 0.005025 0.944674
vt 0.008283 0.947172
vt 0.094088 0.997842
vt 0.100089 1.000000
vt 0.106343 0.999864
vt 0.112797 0.997294
vt 0.116540 0.994280
vt 0.119585 0.990298
vt 0.453178 0.425394
vt 0.512734 0.418754
vt 0.567559 0.390961
vt 0.594052 0.366701
vt 0.616062 0.336631
vn -0.843844 -0.536588 0.000000
vn -0.843844 -0.536588 0.000000
vn -0.623829 -0.781561 0.000000
vn -0.623829 -0.781561 0.000000
vn -0.971014 -0.239023 0.000000
vn -0.971014 -0.239023 0.000000
vn -0.843844 -0.536588 0.000000
vn -0.843844 -0.536588 0.000000
vn -1.000000 0.000057 0.000000
vn -1.000000 0.000057 0.000000
vn -0.971014 -0.239023 0.000000
vn -0.971014 -0.239023 0.000000
vn -0.994892 0.100945 0.000000
vn -0.994892 0.100945 0.000000
vn -1.000000 0.000057 0.000000
vn -1.000000 0.000057 0.000000
vn -0.591726 -0.806139 0.000000
vn -0.591726 -0.806139 0.000000
vn -0.591726 -0.806139 0.000000
vn -0.591726 -0.806139 0.000000
vn -0.848863 -0.528613 0.000000
vn -0.848863 -0.528613 0.000000
vn -0.734187 -0.678948 0.000000
vn -0.734187 -0.678948 0.000000
vn -0.983286 -0.182069 0.000000
vn -0.983286 -0.182069 0.000000
vn -0.848863 -0.528613 0.000000
vn -0.848863 -0.528613 0.000000
vn -0.988902 0.148570 0.000000
vn -0.988902 0.148570 0.000000
vn -0.983286 -0.182069 0.000000
vn -0.983286 -0.182069 0.000000
vn -0.917580 0.397552 0.000000
vn -0.917580 0.397552 0.000000
vn -0.988902 0.148570 0.000000
vn -0.988902 0.148570 0.000000
vn -0.867385 0.497638 0.000000
vn -0.867385 0.497638 0.000000
vn -0.917580 0.397552 0.000000
vn -0.917580 0.397552 0.000000
vn -0.806139 0.591726 0.000000
vn -0.806139 0.591726 0.000000
vn -0.806139 0.591726 0.000000
vn -0.806139 0.591726 0.000000
vn -0.554690 0.832057 0.000000
vn -0.554690 0.832057 0.000000
vn -0.690399 0.723429 0.000000
vn -0.690399 0.723429 0.000000
vn -0.234825 0.972038 0.000000
vn -0.234825 0.972038 0.000000
vn -0.554690 0.832057 0.000000
vn -0.554690 0.832057 0.000000
vn 0.094639 0.995512 0.000000
vn 0.094639 0.995512 0.000000
vn -0.234825 0.972038 0.000000
vn -0.234825 0.972038 0.000000
vn 0.368460 0.929644 0.000000
vn 0.368460 0.929644 0.000000
vn 0.094639 0.995512 0.000000
vn 0.094639 0.995512 0.000000
vn 0.483813 0.875172 0.000000
vn 0.483813 0.875172 0.000000
vn 0.368460 0.929644 0.000000
vn 0.368460 0.929644 0.000000
vn 0.591726 0.806139 0.000000
vn 0.591726 0.806139 0.000000
vn 0.591726 0.806139 0.000000
vn 0.591726 0.806139 0.000000
vn -0.146964 0.989142 0.000000
vn -0.146964 0.989142 0.000000
vn -0.321314 0.946973 0.000000
vn -0.321314 0.946973 0.000000
vn 0.173534 0.984828 0.000000
vn 0.173534 0.984828 0.000000
vn -0.146964 0.989142 0.000000
vn -0.146964 0.989142 0.000000
vn 0.409696 0.912222 0.000000
vn 0.409696 0.912222 0.000000
vn 0.173534 0.984828 0.000000
vn 0.173534 0.984828 0.000000
vn 0.623828 0.781562 0.000000
vn 0.623828 0.781562 0.000000
vn 0.409696 0.912222 0.000000
vn 0.409696 0.912222 0.000000
vn 0.843843 0.536590 0.000000
vn 0.843843 0.536590 0.000000
vn 0.623828 0.781562 0.000000
vn 0.623828 0.781562 0.000000
vn 0.971014 0.239024 0.000000
vn 0.971014 0.239024 0.000000
vn 0.843843 0.536590 0.000000
vn 0.843843 0.536590 0.000000
vn 1.000000 -0.000060 0.000000
vn 1.000000 -0.000060 0.000000
vn 0.971014 0.239024 0.000000
vn 0.971014 0.239024 0.000000
vn 0.994892 -0.100949 0.000000
vn 0.994892 -0.100949 0.000000
vn 1.000000 -0.000060 0.000000
vn 1.000000 -0.000060 0.000000
vn 0.591726 0.806139 0.000000
vn 0.591726 0.806139 0.000000
vn 0.591726 0.806139 0.000000
vn 0.591726 0.806139 0.000000
vn 0.848862 0.528614 0.000000
vn 0.848862 0.528614 0.000000
vn 0.734178 0.678957 0.000000
vn 0.734178 0.678957 0.000000
vn 0.983286 0.182065 0.000000
vn 0.983286 0.182065 0.000000
vn 0.848862 0.528614 0.000000
vn 0.848862 0.528614 0.000000
vn 0.988902 -0.148572 0.000000
vn 0.988902 -0.148572 0.000000
vn 0.983286 0.182065 0.000000
vn 0.983286 0.182065 0.000000
vn 0.917578 -0.397555 0.000000
vn 0.917578 -0.397555 0.000000
vn 0.988902 -0.148572 0.000000
vn 0.988902 -0.148572 0.000000
vn 0.867384 -0.497640 0.000000
vn 0.867384 -0.497640 0.000000
vn 0.917578 -0.397555 0.000000
vn 0.917578 -0.397555 0.000000
vn 0.806139 -0.591726 0.000000
vn 0.806139 -0.591726 0.000000
vn 0.806139 -0.591726 0.000000
vn 0.806139 -0.591726 0.000000
vn 0.554690 -0.832057 0.000000
vn 0.554690 -0.832057 0.000000
vn 0.690397 -0.723431 0.000000
vn 0.690397 -0.723431 0.000000
vn 0.234817 -0.972040 0.000000
vn 0.234817 -0.972040 0.000000
vn 0.554690 -0.832057 0.000000
vn 0.554690 -0.832057 0.000000
vn -0.094635 -0.995512 0.000000
vn -0.094635 -0.995512 0.000000
vn 0.234817 -0.972040 0.000000
vn 0.234817 -0.972040 0.000000
vn -0.368438 -0.929652 0.000000
vn -0.368438 -0.929652 0.000000
vn -0.094635 -0.995512 0.000000
vn -0.094635 -0.995512 0.000000
vn -0.483793 -0.875182 0.000000
vn -0.483793 -0.875182 0.000000
vn -0.368438 -0.929652 0.000000
vn -0.368438 -0.929652 0.000000
vn -0.591727 -0.806139 0.000000
vn -0.591727 -0.806139 0.000000
vn -0.591727 -0.806139 0.000000
vn -0.591727 -0.806139 0.000000
vn 0.146963 -0.989142 0.000000
vn 0.146963 -0.989142 0.000000
vn 0.321310 -0.946974 0.000000
vn 0.321310 -0.946974 0.000000
vn -0.173530 -0.984829 0.000000
vn -0.173530 -0.984829 0.000000
vn 0.146963 -0.989142 0.000000
vn 0.146963 -0.989142 0.000000
vn -0.409694 -0.912223 0.000000
vn -0.409694 -0.912223 0.000000
vn -0.173530 -0.984829 0.000000
vn -0.173530 -0.984829 0.000000
vn -0.623829 -0.781561 0.000000
vn -0.623829 -0.781561 0.000000
vn -0.409694 -0.912223 0.000000
vn -0.409694 -0.912223 0.000000
vn 0.000000 0.000000 0.000000
vn 0.000000 0.000000 1.000000
vn 0.000000 0.000000 1.000000
vn 0.000000 0.000000 1.000000
vn 0.000000 0.000000 1.000000
vn 0.000000 0.000000 1.000000
vn 0.000000 0.000000 1.000000
vn 0.000000 0.000000 1.000000
vn 0.000000 0.000000 1.000000
vn 0.000000 0.000000 1.000000
vn 0.000000 0.000000 1.000000
vn 0.000000 0.000000 1.000000
vn 0.000000 0.000000 1.000000
vn 0.000000 0.000000 1.000000
vn 0.000000 0.000000 1.000000
vn 0.000000 0.000000 1.000000
vn 0.000000 0.000000 1.000000
vn 0.000000 0.000000 1.000000
vn 0.000000 0.000000 1.000000
vn 0.000000 0.000000 1.000000
vn 0.000000 0.000000 1.000000
vn 0.000000 0.000000 1.000000
vn 0.000000 0.000000 1.000000
vn 0.000000 0.000000 1.000000
vn 0.000000 0.000000 1.000000
vn 0.000000 0.000000 1.000000
vn 0.000000 0.000000 1.000000
vn 0.000000 0.000000 1.000000
vn 0.000000 0.000000 1.000000
vn 0.000000 0.000000 1.000000
vn 0.000000 0.000000 1.000000
vn 0.000000 0.000000 1.000000
vn 0.000000 0.000000 1.000000
vn 0.000000 0.000000 1.000000
vn 0.000000 0.000000 1.000000
vn 0.000000 0.000000 1.000000
vn 0.000000 0.000000 1.000000
vn 0.000000 0.000000 1.000000
vn 0.000000 0.000000 1.000000
vn 0.000000 0.000000 1.000000
vn 0.000000 0.000000 1.000000
vn 0.000000 0.000000 1.000000
vn 0.000000 0.000000 -1.000000
vn 0.000000 0.000000 -1.000000
vn 0.000000 0.000000 -1.000000
vn 0.000000 0.000000 -1.000000
vn 0.000000 0.000000 -1.000000
vn 0.000000 0.000000 -1.000000
vn 0.000000 0.000000 -1.000000
vn 0.000000 0.000000 -1.000000
vn 0.000000 0.000000 -1.000000
vn 0.000000 0.000000 -1.000000
vn 0.000000 0.000000 -1.000000
vn 0.000000 0.000000 -1.000000
vn 0.000000 0.000000 -1.000000
vn 0.000000 0.000000 -1.000000
vn 0.000000 0.000000 -1.000000
vn 0.000000 0.000000 -1.000000
vn 0.000000 0.000000 -1.000000
vn 0.000000 0.000000 -1.000000
vn 0.000000 0.000000 -1.000000
vn 0.000000 0.000000 -1.000000
vn 0.000000 0.000000 -1.000000
vn 0.000000 0.000000 -1.000000
vn 0.000000 0.000000 -1.000000
vn 0.000000 0.000000 -1.000000
vn 0.000000 0.000000 -1.000000
vn 0.000000 0.000000 -1.000000
vn 0.000000 0.000000 -1.000000
vn 0.000000 0.000000 -1.000000
vn 0.000000 0.000000 -1.000000
vn 0.000000 0.000000 -1.000000
vn 0.000000 0.000000 -1.000000
vn 0.000000 0.000000 -1.000000
vn 0.000000 0.000000 -1.000000
vn 0.000000 0.000000 -1.000000
vn 0.000000 0.000000 -1.000000
vn 0.000000 0.000000 -1.000000
vn 0.000000 0.000000 -1.000000
vn 0.000000 0.000000 -1.000000
vn 0.000000 0.000000 -1.000000
vn 0.000000 0.000000 -1.000000
vn 0.000000 0.000000 -1.000000
vn 0.000000 0.000000 0.000000
s off
g polySurface1 Clock_07:Mesh
usemtl Clock_07:Mat_2_1
f 2/1/1 44/2/2 43/3/3 1/4/4
f 3/5/5 45/6/6 44/2/7 2/1/8
f 4/7/9 46/8/10 45/6/11 3/5/12
f 5/9/13 47/10/14 46/8/15 4/7/16
f 6/11/17 48/12/18 47/10/19 5/9/20
f 7/13/21 49/14/22 48/12/23 6/11/24
f 8/15/25 50/16/26 49/14/27 7/13/28
f 9/17/29 51/18/30 50/16/31 8/15/32
f 10/19/33 52/20/34 51/18/35 9/17/36
f 11/21/37 53/22/38 52/20/39 10/19/40
f 12/23/41 54/24/42 53/22/43 11/21/44
f 13/25/45 55/26/46 54/24/47 12/23/48
f 14/27/49 56/28/50 55/26/51 13/25/52
f 15/29/53 57/30/54 56/28/55 14/27/56
f 16/31/57 58/32/58 57/30/59 15/29/60
f 17/33/61 59/34/62 58/32/63 16/31/64
f 18/35/65 60/36/66 59/34/67 17/33/68
f 19/37/69 61/38/70 60/36/71 18/35/72
f 20/39/73 62/40/74 61/38/75 19/37/76
f 21/41/77 63/42/78 62/40/79 20/39/80
f 22/43/81 64/44/82 63/42/83 21/41/84
f 23/45/85 65/46/86 64/44/87 22/43/88
f 24/47/89 66/48/90 65/46/91 23/45/92
f 25/49/93 67/50/94 66/48/95 24/47/96
f 26/51/97 68/52/98 67/50/99 25/49/100
f 27/53/101 69/54/102 68/52/103 26/51/104
f 28/55/105 70/56/106 69/54/107 27/53/108
f 29/57/109 71/58/110 70/56/111 28/55/112
f 30/59/113 72/60/114 71/58/115 29/57/116
f 31/61/117 73/62/118 72/60/119 30/59/120
f 32/63/121 74/64/122 73/62/123 31/61/124
f 33/65/125 75/66/126 74/64/127 32/63/128
f 34/67/129 76/68/130 75/66/131 33/65/132
f 35/69/133 77/70/134 76/68/135 34/67/136
f 36/71/137 78/72/138 77/70/139 35/69/140
f 37/73/141 79/74/142 78/72/143 36/71/144
f 38/75/145 80/76/146 79/74/147 37/73/148
f 39/77/149 81/78/150 80/76/151 38/75/152
f 40/79/153 82/80/154 81/78/155 39/77/156
f 41/81/157 83/82/158 82/80/159 40/79/160
f 42/83/161 84/84/162 83/82/163 41/81/164
f 1/85/165 43/86/166 84/84/167 42/83/168
f 103/87/169 102/88/170 40/89/171 101/90/172 100/91/173 99/92/174 98/93/175 35/94/176 34/95/177 97/96/178 96/97/179 31/98/180 95/99/181 94/100/182 28/101/183 27/102/184 93/103/185 25/104/186 92/105/187 23/106/188 22/107/189 21/108/190 20/109/191 19/110/192 91/111/193 17/112/194 16/113/195 15/114/196 14/115/197 90/116/198 12/117/199 11/118/200 89/119/201 88/120/202 87/121/203 86/122/204 6/123/205 85/124/206 4/125/207 3/126/208 2/127/209 1/128/210
f 44/129/211 45/130/212 46/131/213 104/132/214 48/133/215 105/134/216 106/135/217 107/136/218 108/137/219 53/138/220 54/139/221 109/140/222 56/141/223 57/142/224 58/143/225 59/144/226 110/145/227 61/146/228 62/147/229 63/148/230 64/149/231 65/150/232 111/151/233 67/152/234 112/153/235 69/154/236 70/155/237 113/156/238 114/157/239 73/158/240 115/159/241 116/160/242 76/161/243 77/162/244 117/163/245 118/164/246 119/165/247 120/166/248 82/167/249 121/168/250 122/169/251 43/170/252
