# This file uses centimeters as units for non-parametric coordinates.

mtllib ManecillasM.mtl
g default
v 0.811388 0.054273 0.792381
v 0.548615 -0.198251 0.792714
v 0.224158 -0.333966 0.793115
v 0.028027 -0.356711 0.793355
v -0.169864 -0.339518 0.793594
v -0.442139 -0.721915 0.793946
v -0.472218 -0.750549 0.793984
v -0.509400 -0.765490 0.794030
v -0.549377 -0.766010 0.794078
v -0.572275 -0.759366 0.794106
v -0.593801 -0.747427 0.794131
v -1.081028 -0.400511 0.794704
v -1.107789 -0.373269 0.794735
v -1.123094 -0.339757 0.794752
v -1.126068 -0.299946 0.794753
v -1.119750 -0.273583 0.794744
v -1.106540 -0.248848 0.794726
v -0.834264 0.133550 0.794375
v -0.951813 0.464208 0.794499
v -0.945611 0.815193 0.794472
v -0.885468 1.008076 0.794388
v -0.783175 1.189635 0.794254
v -0.520404 1.442160 0.793921
v -0.195947 1.577876 0.793520
v 0.000185 1.600621 0.793280
v 0.198076 1.583426 0.793041
v 6.234457 10.061254 0.785241
v 6.264536 10.089888 0.785203
v 6.301718 10.104826 0.785157
v 6.341695 10.105347 0.785108
v 6.364593 10.098703 0.785081
v 6.386119 10.086763 0.785056
v 6.873346 9.739849 0.784483
v 6.900107 9.712607 0.784452
v 6.915412 9.679094 0.784435
v 6.918387 9.639282 0.784434
v 6.912067 9.612919 0.784443
v 6.898858 9.588185 0.784460
v 0.862477 1.110359 0.792260
v 0.980023 0.779702 0.792136
v 0.973822 0.428715 0.792163
v 0.913680 0.235833 0.792246
v 0.811116 0.054260 0.568664
v 0.548344 -0.198263 0.568997
v 0.223886 -0.333978 0.569399
v 0.027755 -0.356724 0.569638
v -0.170135 -0.339530 0.569877
v -0.442410 -0.721928 0.570229
v -0.472489 -0.750562 0.570267
v -0.509672 -0.765502 0.570313
v -0.549649 -0.766022 0.570362
v -0.572546 -0.759378 0.570389
v -0.594073 -0.747439 0.570415
v -1.081300 -0.400523 0.570987
v -1.108061 -0.373282 0.571018
v -1.123365 -0.339769 0.571035
v -1.126339 -0.299958 0.571036
v -1.120022 -0.273595 0.571027
v -1.106812 -0.248860 0.571010
v -0.834536 0.133538 0.570658
v -0.952085 0.464195 0.570782
v -0.945882 0.815180 0.570756
v -0.885739 1.008063 0.570672
v -0.783446 1.189623 0.570538
v -0.520676 1.442148 0.570204
v -0.196219 1.577864 0.569803
v -0.000087 1.600609 0.569564
v 0.197804 1.583413 0.569324
v 6.234185 10.061241 0.561525
v 6.264264 10.089875 0.561486
v 6.301446 10.104814 0.561440
v 6.341423 10.105335 0.561392
v 6.364321 10.098691 0.561364
v 6.385847 10.086751 0.561339
v 6.873074 9.739836 0.560766
v 6.899836 9.712594 0.560736
v 6.915140 9.679082 0.560719
v 6.918115 9.639270 0.560717
v 6.911795 9.612906 0.560726
v 6.898587 9.588172 0.560744
v 0.862205 1.110347 0.568544
v 0.979751 0.779690 0.568419
v 0.973550 0.428703 0.568446
v 0.913408 0.235820 0.568530
v -0.169864 -0.339518 0.793594
v -0.549377 -0.766010 0.794078
v -0.593801 -0.747427 0.794131
v -1.081028 -0.400511 0.794704
v -1.107789 -0.373269 0.794735
v -1.126068 -0.299946 0.794753
v -1.119750 -0.273583 0.794744
v -0.834264 0.133550 0.794375
v -0.945611 0.815193 0.794472
v -0.195947 1.577876 0.793520
v 0.198076 1.583426 0.793041
v 6.234457 10.061254 0.785241
v 6.264536 10.089888 0.785203
v 6.301718 10.104826 0.785157
v 6.364593 10.098703 0.785081
v 6.900107 9.712607 0.784452
v 6.915412 9.679094 0.784435
v 6.918387 9.639282 0.784434
v 6.912067 9.612919 0.784443
v 6.898858 9.588185 0.784460
v 0.862477 1.110359 0.792260
v 0.980023 0.779702 0.792136
v -0.170135 -0.339530 0.569877
v -0.549649 -0.766022 0.570362
v -0.594073 -0.747439 0.570415
v -1.081300 -0.400523 0.570987
v -1.108061 -0.373282 0.571018
v -1.126339 -0.299958 0.571036
v -1.120022 -0.273595 0.571027
v -0.834536 0.133538 0.570658
v -0.945882 0.815180 0.570756
v -0.196219 1.577864 0.569803
v 0.197804 1.583413 0.569324
v 6.234185 10.061241 0.561525
v 6.264264 10.089875 0.561486
v 6.301446 10.104814 0.561440
v 6.364321 10.098691 0.561364
v 6.899836 9.712594 0.560736
v 6.915140 9.679082 0.560719
v 6.918115 9.639270 0.560717
v 6.911795 9.612906 0.560726
v 6.898587 9.588172 0.560744
v 0.862205 1.110347 0.568544
v 0.979751 0.779690 0.568419
vt 0.013045 1.000000
vt 0.013045 0.000000
vt 0.000000 0.000000
vt 0.000000 1.000000
vt 0.025426 1.000000
vt 0.025426 0.000000
vt 0.032245 1.000000
vt 0.032245 0.000000
vt 0.039009 1.000000
vt 0.039009 0.000000
vt 0.055851 1.000000
vt 0.055851 0.000000
vt 0.057337 1.000000
vt 0.057337 0.000000
vt 0.058747 1.000000
vt 0.058747 0.000000
vt 0.060117 1.000000
vt 0.060117 0.000000
vt 0.060920 1.000000
vt 0.060920 0.000000
vt 0.061743 1.000000
vt 0.061743 0.000000
vt 0.081721 1.000000
vt 0.081721 0.000000
vt 0.082999 1.000000
vt 0.082999 0.000000
vt 0.084253 1.000000
vt 0.084253 0.000000
vt 0.085646 1.000000
vt 0.085646 0.000000
vt 0.086610 1.000000
vt 0.086610 0.000000
vt 0.087615 1.000000
vt 0.087615 0.000000
vt 0.104456 1.000000
vt 0.104456 0.000000
vt 0.116470 1.000000
vt 0.116470 0.000000
vt 0.128793 1.000000
vt 0.128793 0.000000
vt 0.135994 1.000000
vt 0.135994 0.000000
vt 0.143465 1.000000
vt 0.143465 0.000000
vt 0.156510 1.000000
vt 0.156510 0.000000
vt 0.168891 1.000000
vt 0.168891 0.000000
vt 0.175710 1.000000
vt 0.175710 0.000000
vt 0.182475 1.000000
vt 0.182475 0.000000
vt 0.555851 1.000000
vt 0.555851 0.000000
vt 0.557337 1.000000
vt 0.557337 0.000000
vt 0.558747 1.000000
vt 0.558747 0.000000
vt 0.560117 1.000000
vt 0.560117 0.000000
vt 0.560920 1.000000
vt 0.560920 0.000000
vt 0.561743 1.000000
vt 0.561743 0.000000
vt 0.581721 1.000000
vt 0.581721 0.000000
vt 0.582999 1.000000
vt 0.582999 0.000000
vt 0.584253 1.000000
vt 0.584253 0.000000
vt 0.585646 1.000000
vt 0.585646 0.000000
vt 0.586610 1.000000
vt 0.586610 0.000000
vt 0.587615 1.000000
vt 0.587615 0.000000
vt 0.960991 1.000000
vt 0.960991 0.000000
vt 0.973005 1.000000
vt 0.973005 0.000000
vt 0.985328 1.000000
vt 0.985328 0.000000
vt 0.992529 1.000000
vt 0.992529 0.000000
vt 1.000000 1.000000
vt 1.000000 0.000000
vt 0.139967 0.130132
vt 0.135419 0.145047
vt 0.121063 0.167535
vt 0.100269 0.183161
vt 0.100269 0.991553
vt 0.100010 0.993713
vt 0.099276 0.995666
vt 0.097431 0.998051
vt 0.095124 0.999482
vt 0.092405 1.000000
vt 0.049151 1.000000
vt 0.047383 0.999786
vt 0.045755 0.999174
vt 0.043422 0.997340
vt 0.041858 0.994720
vt 0.041287 0.991553
vt 0.041287 0.183161
vt 0.028908 0.175333
vt 0.018309 0.165058
vt 0.004888 0.141853
vt 0.000000 0.114036
vt 0.001589 0.097939
vt 0.006137 0.083025
vt 0.020493 0.060537
vt 0.041287 0.044910
vt 0.041287 0.008447
vt 0.041546 0.006287
vt 0.042280 0.004334
vt 0.044125 0.001949
vt 0.046432 0.000518
vt 0.049151 0.000000
vt 0.092405 0.000000
vt 0.094174 0.000214
vt 0.095801 0.000826
vt 0.098134 0.002660
vt 0.099698 0.005280
vt 0.100269 0.008447
vt 0.100269 0.044910
vt 0.112648 0.052738
vt 0.123248 0.063013
vt 0.136669 0.086218
vt 0.141556 0.114036
vt 0.907449 0.997231
vt 0.931593 0.985607
vt 0.942636 0.975819
vt 0.951373 0.964072
vt 0.987717 0.966828
vt 0.990917 0.966498
vt 0.993647 0.965137
vt 0.995652 0.962950
vt 0.996384 0.961374
vt 0.996731 0.959627
vt 1.000000 0.916515
vt 0.999689 0.913766
vt 0.998437 0.911358
vt 0.996199 0.909339
vt 0.994308 0.908460
vt 0.992175 0.908039
vt 0.955831 0.905283
vt 0.941827 0.883376
vt 0.920498 0.867367
vt 0.905976 0.861707
vt 0.890052 0.858907
vt 0.861956 0.861676
vt 0.837813 0.873299
vt 0.826770 0.883088
vt 0.818032 0.894835
vt 0.012283 0.833741
vt 0.009083 0.834071
vt 0.006353 0.835431
vt 0.004348 0.837618
vt 0.003616 0.839194
vt 0.003269 0.840941
vt 0.000000 0.884053
vt 0.000311 0.886802
vt 0.001563 0.889210
vt 0.003801 0.891229
vt 0.005692 0.892108
vt 0.007825 0.892530
vt 0.813574 0.953624
vt 0.827578 0.975530
vt 0.848908 0.991540
vt 0.863430 0.997199
vt 0.879354 1.000000
vn 0.548726 -0.836002 -0.000620
vn 0.548726 -0.836002 -0.000620
vn 0.790493 -0.612470 -0.000926
vn 0.790493 -0.612470 -0.000926
vn 0.253029 -0.967459 -0.000254
vn 0.253029 -0.967459 -0.000254
vn 0.548726 -0.836002 -0.000620
vn 0.548726 -0.836002 -0.000620
vn 0.014393 -0.999897 0.000038
vn 0.014393 -0.999897 0.000038
vn 0.253029 -0.967459 -0.000254
vn 0.253029 -0.967459 -0.000254
vn -0.086559 -0.996247 0.000160
vn -0.086559 -0.996247 0.000160
vn 0.014393 -0.999897 0.000038
vn 0.014393 -0.999897 0.000038
vn 0.814604 -0.580016 -0.000957
vn 0.814604 -0.580016 -0.000957
vn 0.814604 -0.580016 -0.000957
vn 0.814604 -0.580016 -0.000957
vn 0.540831 -0.841131 -0.000610
vn 0.540831 -0.841131 -0.000610
vn 0.689493 -0.724292 -0.000797
vn 0.689493 -0.724292 -0.000797
vn 0.196261 -0.980552 -0.000184
vn 0.196261 -0.980552 -0.000184
vn 0.540831 -0.841131 -0.000610
vn 0.540831 -0.841131 -0.000610
vn -0.134271 -0.990945 0.000218
vn -0.134271 -0.990945 0.000218
vn 0.196261 -0.980552 -0.000184
vn 0.196261 -0.980552 -0.000184
vn -0.384255 -0.923227 0.000518
vn -0.384255 -0.923227 0.000518
vn -0.134271 -0.990945 0.000218
vn -0.134271 -0.990945 0.000218
vn -0.485047 -0.874488 0.000637
vn -0.485047 -0.874488 0.000637
vn -0.384255 -0.923227 0.000518
vn -0.384255 -0.923227 0.000518
vn -0.580015 -0.814606 0.000749
vn -0.580015 -0.814606 0.000749
vn -0.580015 -0.814606 0.000749
vn -0.580015 -0.814606 0.000749
vn -0.823953 -0.566657 0.001032
vn -0.823953 -0.566657 0.001032
vn -0.713381 -0.700776 0.000905
vn -0.713381 -0.700776 0.000905
vn -0.968543 -0.248845 0.001190
vn -0.968543 -0.248845 0.001190
vn -0.823953 -0.566657 0.001032
vn -0.823953 -0.566657 0.001032
vn -0.996775 0.080238 0.001206
vn -0.996775 0.080238 0.001206
vn -0.968543 -0.248845 0.001190
vn -0.968543 -0.248845 0.001190
vn -0.934879 0.354966 0.001116
vn -0.934879 0.354966 0.001116
vn -0.996775 0.080238 0.001206
vn -0.996775 0.080238 0.001206
vn -0.882081 0.471097 0.001045
vn -0.882081 0.471097 0.001045
vn -0.934879 0.354966 0.001116
vn -0.934879 0.354966 0.001116
vn -0.814604 0.580016 0.000957
vn -0.814604 0.580016 0.000957
vn -0.814604 0.580016 0.000957
vn -0.814604 0.580016 0.000957
vn -0.986914 -0.161242 0.001207
vn -0.986914 -0.161242 0.001207
vn -0.942231 -0.334963 0.001163
vn -0.942231 -0.334963 0.001163
vn -0.987232 0.159283 0.001190
vn -0.987232 0.159283 0.001190
vn -0.986914 -0.161242 0.001207
vn -0.986914 -0.161242 0.001207
vn -0.918047 0.396470 0.001093
vn -0.918047 0.396470 0.001093
vn -0.987232 0.159283 0.001190
vn -0.987232 0.159283 0.001190
vn -0.790495 0.612468 0.000926
vn -0.790495 0.612468 0.000926
vn -0.918047 0.396470 0.001093
vn -0.918047 0.396470 0.001093
vn -0.548727 0.836001 0.000620
vn -0.548727 0.836001 0.000620
vn -0.790495 0.612468 0.000926
vn -0.790495 0.612468 0.000926
vn -0.253030 0.967458 0.000254
vn -0.253030 0.967458 0.000254
vn -0.548727 0.836001 0.000620
vn -0.548727 0.836001 0.000620
vn -0.014389 0.999896 -0.000038
vn -0.014389 0.999896 -0.000038
vn -0.253030 0.967458 0.000254
vn -0.253030 0.967458 0.000254
vn 0.086567 0.996246 -0.000160
vn 0.086567 0.996246 -0.000160
vn -0.014389 0.999896 -0.000038
vn -0.014389 0.999896 -0.000038
vn -0.814605 0.580016 0.000957
vn -0.814605 0.580016 0.000957
vn -0.814605 0.580016 0.000957
vn -0.814605 0.580016 0.000957
vn -0.540812 0.841143 0.000610
vn -0.540812 0.841143 0.000610
vn -0.689492 0.724293 0.000797
vn -0.689492 0.724293 0.000797
vn -0.196251 0.980554 0.000184
vn -0.196251 0.980554 0.000184
vn -0.540812 0.841143 0.000610
vn -0.540812 0.841143 0.000610
vn 0.134276 0.990944 -0.000218
vn 0.134276 0.990944 -0.000218
vn -0.196251 0.980554 0.000184
vn -0.196251 0.980554 0.000184
vn 0.384272 0.923220 -0.000518
vn 0.384272 0.923220 -0.000518
vn 0.134276 0.990944 -0.000218
vn 0.134276 0.990944 -0.000218
vn 0.485050 0.874486 -0.000637
vn 0.485050 0.874486 -0.000637
vn 0.384272 0.923220 -0.000518
vn 0.384272 0.923220 -0.000518
vn 0.580014 0.814606 -0.000749
vn 0.580014 0.814606 -0.000749
vn 0.580014 0.814606 -0.000749
vn 0.580014 0.814606 -0.000749
vn 0.823951 0.566660 -0.001032
vn 0.823951 0.566660 -0.001032
vn 0.713381 0.700776 -0.000905
vn 0.713381 0.700776 -0.000905
vn 0.968542 0.248847 -0.001190
vn 0.968542 0.248847 -0.001190
vn 0.823951 0.566660 -0.001032
vn 0.823951 0.566660 -0.001032
vn 0.996774 -0.080245 -0.001206
vn 0.996774 -0.080245 -0.001206
vn 0.968542 0.248847 -0.001190
vn 0.968542 0.248847 -0.001190
vn 0.934875 -0.354974 -0.001116
vn 0.934875 -0.354974 -0.001116
vn 0.996774 -0.080245 -0.001206
vn 0.996774 -0.080245 -0.001206
vn 0.882079 -0.471101 -0.001045
vn 0.882079 -0.471101 -0.001045
vn 0.934875 -0.354974 -0.001116
vn 0.934875 -0.354974 -0.001116
vn 0.814605 -0.580016 -0.000957
vn 0.814605 -0.580016 -0.000957
vn 0.814605 -0.580016 -0.000957
vn 0.814605 -0.580016 -0.000957
vn 0.986914 0.161241 -0.001207
vn 0.986914 0.161241 -0.001207
vn 0.942232 0.334960 -0.001163
vn 0.942232 0.334960 -0.001163
vn 0.987233 -0.159280 -0.001190
vn 0.987233 -0.159280 -0.001190
vn 0.986914 0.161241 -0.001207
vn 0.986914 0.161241 -0.001207
vn 0.918047 -0.396469 -0.001093
vn 0.918047 -0.396469 -0.001093
vn 0.987233 -0.159280 -0.001190
vn 0.987233 -0.159280 -0.001190
vn 0.790493 -0.612470 -0.000926
vn 0.790493 -0.612470 -0.000926
vn 0.918047 -0.396469 -0.001093
vn 0.918047 -0.396469 -0.001093
vn 0.000000 0.000000 0.000000
vn 0.001214 0.000055 0.999999
vn 0.001214 0.000055 0.999999
vn 0.001214 0.000055 0.999999
vn 0.001214 0.000055 0.999999
vn 0.001214 0.000055 0.999999
vn 0.001214 0.000055 0.999999
vn 0.001214 0.000055 0.999999
vn 0.001214 0.000055 0.999999
vn 0.001214 0.000055 0.999999
vn 0.001214 0.000055 0.999999
vn 0.001214 0.000055 0.999999
vn 0.001214 0.000055 0.999999
vn 0.001214 0.000055 0.999999
vn 0.001214 0.000055 0.999999
vn 0.001214 0.000055 0.999999
vn 0.001214 0.000055 0.999999
vn 0.001214 0.000055 0.999999
vn 0.001214 0.000055 0.999999
vn 0.001214 0.000055 0.999999
vn 0.001214 0.000055 0.999999
vn 0.001214 0.000055 0.999999
vn 0.001214 0.000055 0.999999
vn 0.001214 0.000055 0.999999
vn 0.001214 0.000055 0.999999
vn 0.001214 0.000055 0.999999
vn 0.001214 0.000055 0.999999
vn 0.001214 0.000055 0.999999
vn 0.001214 0.000055 0.999999
vn 0.001214 0.000055 0.999999
vn 0.001214 0.000055 0.999999
vn 0.001214 0.000055 0.999999
vn 0.001214 0.000055 0.999999
vn 0.001214 0.000055 0.999999
vn 0.001214 0.000055 0.999999
vn 0.001214 0.000055 0.999999
vn 0.001214 0.000055 0.999999
vn 0.001214 0.000055 0.999999
vn 0.001214 0.000055 0.999999
vn 0.001214 0.000055 0.999999
vn 0.001214 0.000055 0.999999
vn 0.001214 0.000055 0.999999
vn -0.001214 -0.000055 -0.999999
vn -0.001214 -0.000055 -0.999999
vn -0.001214 -0.000055 -0.999999
vn -0.001214 -0.000055 -0.999999
vn -0.001214 -0.000055 -0.999999
vn -0.001214 -0.000055 -0.999999
vn -0.001214 -0.000055 -0.999999
vn -0.001214 -0.000055 -0.999999
vn -0.001214 -0.000055 -0.999999
vn -0.001214 -0.000055 -0.999999
vn -0.001214 -0.000055 -0.999999
vn -0.001214 -0.000055 -0.999999
vn -0.001214 -0.000055 -0.999999
vn -0.001214 -0.000055 -0.999999
vn -0.001214 -0.000055 -0.999999
vn -0.001214 -0.000055 -0.999999
vn -0.001214 -0.000055 -0.999999
vn -0.001214 -0.000055 -0.999999
vn -0.001214 -0.000055 -0.999999
vn -0.001214 -0.000055 -0.999999
vn -0.001214 -0.000055 -0.999999
vn -0.001214 -0.000055 -0.999999
vn -0.001214 -0.000055 -0.999999
vn -0.001214 -0.000055 -0.999999
vn -0.001214 -0.000055 -0.999999
vn -0.001214 -0.000055 -0.999999
vn -0.001214 -0.000055 -0.999999
vn -0.001214 -0.000055 -0.999999
vn -0.001214 -0.000055 -0.999999
vn -0.001214 -0.000055 -0.999999
vn -0.001214 -0.000055 -0.999999
vn -0.001214 -0.000055 -0.999999
vn -0.001214 -0.000055 -0.999999
vn -0.001214 -0.000055 -0.999999
vn -0.001214 -0.000055 -0.999999
vn -0.001214 -0.000055 -0.999999
vn -0.001214 -0.000055 -0.999999
vn -0.001214 -0.000055 -0.999999
vn -0.001214 -0.000055 -0.999999
vn -0.001214 -0.000055 -0.999999
vn -0.001214 -0.000055 -0.999999
vn 0.000000 0.000000 0.000000
s off
g polySurface6 polySurface2 Clock_07:Mesh
usemtl Clock_07:Mat_2
f 2/1/1 44/2/2 43/3/3 1/4/4
f 3/5/5 45/6/6 44/2/7 2/1/8
f 4/7/9 46/8/10 45/6/11 3/5/12
f 5/9/13 47/10/14 46/8/15 4/7/16
f 6/11/17 48/12/18 47/10/19 5/9/20
f 7/13/21 49/14/22 48/12/23 6/11/24
f 8/15/25 50/16/26 49/14/27 7/13/28
f 9/17/29 51/18/30 50/16/31 8/15/32
f 10/19/33 52/20/34 51/18/35 9/17/36
f 11/21/37 53/22/38 52/20/39 10/19/40
f 12/23/41 54/24/42 53/22/43 11/21/44
f 13/25/45 55/26/46 54/24/47 12/23/48
f 14/27/49 56/28/50 55/26/51 13/25/52
f 15/29/53 57/30/54 56/28/55 14/27/56
f 16/31/57 58/32/58 57/30/59 15/29/60
f 17/33/61 59/34/62 58/32/63 16/31/64
f 18/35/65 60/36/66 59/34/67 17/33/68
f 19/37/69 61/38/70 60/36/71 18/35/72
f 20/39/73 62/40/74 61/38/75 19/37/76
f 21/41/77 63/42/78 62/40/79 20/39/80
f 22/43/81 64/44/82 63/42/83 21/41/84
f 23/45/85 65/46/86 64/44/87 22/43/88
f 24/47/89 66/48/90 65/46/91 23/45/92
f 25/49/93 67/50/94 66/48/95 24/47/96
f 26/51/97 68/52/98 67/50/99 25/49/100
f 27/53/101 69/54/102 68/52/103 26/51/104
f 28/55/105 70/56/106 69/54/107 27/53/108
f 29/57/109 71/58/110 70/56/111 28/55/112
f 30/59/113 72/60/114 71/58/115 29/57/116
f 31/61/117 73/62/118 72/60/119 30/59/120
f 32/63/121 74/64/122 73/62/123 31/61/124
f 33/65/125 75/66/126 74/64/127 32/63/128
f 34/67/129 76/68/130 75/66/131 33/65/132
f 35/69/133 77/70/134 76/68/135 34/67/136
f 36/71/137 78/72/138 77/70/139 35/69/140
f 37/73/141 79/74/142 78/72/143 36/71/144
f 38/75/145 80/76/146 79/74/147 37/73/148
f 39/77/149 81/78/150 80/76/151 38/75/152
f 40/79/153 82/80/154 81/78/155 39/77/156
f 41/81/157 83/82/158 82/80/159 40/79/160
f 42/83/161 84/84/162 83/82/163 41/81/164
f 1/85/165 43/86/166 84/84/167 42/83/168
f 42/87/169 41/88/170 106/89/171 105/90/172 104/91/173 103/92/174 102/93/175 101/94/176 100/95/177 33/96/178 32/97/179 99/98/180 30/99/181 98/100/182 97/101/183 96/102/184 95/103/185 25/104/186 94/105/187 23/106/188 22/107/189 21/108/190 93/109/191 19/110/192 92/111/193 17/112/194 91/113/195 90/114/196 14/115/197 89/116/198 88/117/199 87/118/200 10/119/201 86/120/202 8/121/203 7/122/204 6/123/205 85/124/206 4/125/207 3/126/208 2/127/209 1/128/210
f 44/129/211 45/130/212 46/131/213 107/132/214 48/133/215 49/134/216 50/135/217 108/136/218 52/137/219 109/138/220 110/139/221 111/140/222 56/141/223 112/142/224 113/143/225 59/144/226 114/145/227 61/146/228 115/147/229 63/148/230 64/149/231 65/150/232 116/151/233 67/152/234 117/153/235 118/154/236 119/155/237 120/156/238 72/157/239 121/158/240 74/159/241 75/160/242 122/161/243 123/162/244 124/163/245 125/164/246 126/165/247 127/166/248 128/167/249 83/168/250 84/169/251 43/170/252
