# This file uses centimeters as units for non-parametric coordinates.

mtllib vidrio.mtl
g default
v 33.419937 22.194721 20.402262
v 28.235819 22.194721 20.402262
v 33.419937 30.221958 20.402262
v 28.235819 30.221958 20.402262
v 26.796709 22.194721 20.402262
v 21.612593 22.194721 20.402262
v 26.796709 30.221958 20.402262
v 21.612593 30.221958 20.402262
v 64.858658 25.348442 20.387396
v 49.624954 25.348442 20.387396
v 64.858658 30.477188 20.387396
v 49.624954 30.477188 20.387396
v -29.222242 25.336441 40.065731
v -36.451355 25.336441 40.065731
v -29.222242 30.480618 40.065731
v -36.451355 30.480618 40.065731
v -48.887161 23.295269 40.238842
v -53.805382 23.295269 40.238842
v -48.887161 30.337013 40.238842
v -53.805382 30.337013 40.238842
v -54.365520 23.295269 40.238842
v -59.283741 23.295269 40.238842
v -54.365520 30.337013 40.238842
v -59.283741 30.337013 40.238842
v -66.370079 25.531700 16.287308
v -66.370079 25.531700 13.289123
v -66.370079 30.392159 13.289123
v -66.370079 30.392159 16.287308
v -66.459511 25.336441 1.334686
v -66.459511 25.336441 -6.702183
v -66.459511 30.480618 1.334686
v -66.459511 30.480618 -6.702183
v -53.078999 22.869961 -20.182262
v -53.078999 22.869961 -23.775814
v -53.078999 30.133621 -20.182262
v -53.078999 30.133621 -23.775814
v -53.078999 22.869961 -24.502609
v -53.078999 22.869961 -28.096161
v -53.078999 30.133621 -24.502609
v -53.078999 30.133621 -28.096161
v -43.224876 22.753222 -32.604279
v -39.511803 22.753222 -32.604279
v -43.224876 30.176823 -32.604279
v -39.511803 30.176823 -32.604279
v -38.915939 22.753222 -32.604279
v -35.322388 22.753222 -32.604279
v -38.915939 30.176823 -32.604279
v -35.322388 30.176823 -32.604279
v 33.419937 5.390439 20.402262
v 28.235819 5.390439 20.402262
v 33.419937 13.417675 20.402262
v 28.235819 13.417675 20.402262
v 26.796709 5.390439 20.402262
v 21.612593 5.390439 20.402262
v 26.796709 13.417675 20.402262
v 21.612593 13.417675 20.402262
v 8.540342 5.947552 20.387396
v 3.622122 5.947552 20.387396
v 8.540342 13.432940 20.387396
v 3.622122 13.432940 20.387396
v 2.578003 5.947552 20.387396
v -2.340218 5.947552 20.387396
v 2.578003 13.432940 20.387396
v -2.340218 13.432940 20.387396
v -29.222242 8.532158 40.065731
v -36.451355 8.532158 40.065731
v -29.222242 13.676333 40.065731
v -36.451355 13.676333 40.065731
v -48.887161 6.490987 40.238842
v -53.805382 6.490987 40.238842
v -48.887161 13.532731 40.238842
v -53.805382 13.532731 40.238842
v -54.365520 6.490987 40.238842
v -59.283741 6.490987 40.238842
v -54.365520 13.532731 40.238842
v -59.283741 13.532731 40.238842
v -66.370079 8.727418 16.287308
v -66.370079 8.727418 13.289123
v -66.370079 13.587874 13.289123
v -66.370079 13.587874 16.287308
v -66.459511 8.532158 1.334686
v -66.459511 8.532158 -6.702183
v -66.459511 13.676333 1.334686
v -66.459511 13.676333 -6.702183
v -53.078999 6.065677 -20.182262
v -53.078999 6.065677 -23.775814
v -53.078999 13.329337 -20.182262
v -53.078999 13.329337 -23.775814
v -53.078999 6.065677 -24.502609
v -53.078999 6.065677 -28.096161
v -53.078999 13.329337 -24.502609
v -53.078999 13.329337 -28.096161
v -43.224876 5.948939 -32.604279
v -39.511803 5.948939 -32.604279
v -43.224876 13.372539 -32.604279
v -39.511803 13.372539 -32.604279
v -38.915939 5.948939 -32.604279
v -35.322388 5.948939 -32.604279
v -38.915939 13.372539 -32.604279
v -35.322388 13.372539 -32.604279
v 33.419937 22.194721 20.402262
v 28.235819 22.194721 20.402262
v 33.419937 30.221958 20.402262
v 28.235819 30.221958 20.402262
v 26.796709 22.194721 20.402262
v 21.612593 22.194721 20.402262
v 26.796709 30.221958 20.402262
v 21.612593 30.221958 20.402262
v 73.125671 8.630888 -6.033407
v 73.087967 8.630884 11.229058
v 73.125679 13.759634 -6.033405
v 73.087975 13.759630 11.229061
v -29.222242 25.336441 40.065731
v -36.451355 25.336441 40.065731
v -29.222242 30.480618 40.065731
v -36.451355 30.480618 40.065731
v -48.887161 23.295269 40.238842
v -53.805382 23.295269 40.238842
v -48.887161 30.337013 40.238842
v -53.805382 30.337013 40.238842
v -54.365520 23.295269 40.238842
v -59.283741 23.295269 40.238842
v -54.365520 30.337013 40.238842
v -59.283741 30.337013 40.238842
v -66.370079 25.531700 16.287308
v -66.370079 25.531700 13.289123
v -66.370079 30.392159 13.289123
v -66.370079 30.392159 16.287308
v -66.459511 25.336441 1.334686
v -66.459511 25.336441 -6.702183
v -66.459511 30.480618 1.334686
v -66.459511 30.480618 -6.702183
v -53.078999 22.869961 -20.182262
v -53.078999 22.869961 -23.775814
v -53.078999 30.133621 -20.182262
v -53.078999 30.133621 -23.775814
v -53.078999 22.869961 -24.502609
v -53.078999 22.869961 -28.096161
v -53.078999 30.133621 -24.502609
v -53.078999 30.133621 -28.096161
v -43.224876 22.753222 -32.604279
v -39.511803 22.753222 -32.604279
v -43.224876 30.176823 -32.604279
v -39.511803 30.176823 -32.604279
v -38.915939 22.753222 -32.604279
v -35.322388 22.753222 -32.604279
v -38.915939 30.176823 -32.604279
v -35.322388 30.176823 -32.604279
v 33.419937 22.194721 20.402262
v 28.235819 22.194721 20.402262
v 33.419937 30.221958 20.402262
v 28.235819 30.221958 20.402262
v 26.796709 22.194721 20.402262
v 21.612593 22.194721 20.402262
v 26.796709 30.221958 20.402262
v 21.612593 30.221958 20.402262
v 64.858658 25.348442 20.387396
v 49.624954 25.348442 20.387396
v 64.858658 30.477188 20.387396
v 49.624954 30.477188 20.387396
v -29.222242 25.336441 40.065731
v -36.451355 25.336441 40.065731
v -29.222242 30.480618 40.065731
v -36.451355 30.480618 40.065731
v -48.887161 23.295269 40.238842
v -53.805382 23.295269 40.238842
v -48.887161 30.337013 40.238842
v -53.805382 30.337013 40.238842
v -54.365520 23.295269 40.238842
v -59.283741 23.295269 40.238842
v -54.365520 30.337013 40.238842
v -59.283741 30.337013 40.238842
v -66.370079 25.531700 16.287308
v -66.370079 25.531700 13.289123
v -66.370079 30.392159 13.289123
v -66.370079 30.392159 16.287308
v -66.459511 25.336441 1.334686
v -66.459511 25.336441 -6.702183
v -66.459511 30.480618 1.334686
v -66.459511 30.480618 -6.702183
v -53.078999 22.869961 -20.182262
v -53.078999 22.869961 -23.775814
v -53.078999 30.133621 -20.182262
v -53.078999 30.133621 -23.775814
v -53.078999 22.869961 -24.502609
v -53.078999 22.869961 -28.096161
v -53.078999 30.133621 -24.502609
v -53.078999 30.133621 -28.096161
v -43.224876 22.753222 -32.604279
v -39.511803 22.753222 -32.604279
v -43.224876 30.176823 -32.604279
v -39.511803 30.176823 -32.604279
v -38.915939 22.753222 -32.604279
v -35.322388 22.753222 -32.604279
v -38.915939 30.176823 -32.604279
v -35.322388 30.176823 -32.604279
v 33.419937 5.390439 20.402262
v 28.235819 5.390439 20.402262
v 33.419937 13.417675 20.402262
v 28.235819 13.417675 20.402262
v 26.796709 5.390439 20.402262
v 21.612593 5.390439 20.402262
v 26.796709 13.417675 20.402262
v 21.612593 13.417675 20.402262
v 8.540342 5.947552 20.387396
v 3.622122 5.947552 20.387396
v 8.540342 13.432940 20.387396
v 3.622122 13.432940 20.387396
v 2.578003 5.947552 20.387396
v -2.340218 5.947552 20.387396
v 2.578003 13.432940 20.387396
v -2.340218 13.432940 20.387396
v -29.222242 8.532158 40.065731
v -36.451355 8.532158 40.065731
v -29.222242 13.676333 40.065731
v -36.451355 13.676333 40.065731
v -48.887161 6.490987 40.238842
v -53.805382 6.490987 40.238842
v -48.887161 13.532731 40.238842
v -53.805382 13.532731 40.238842
v -54.365520 6.490987 40.238842
v -59.283741 6.490987 40.238842
v -54.365520 13.532731 40.238842
v -59.283741 13.532731 40.238842
v -66.370079 8.727418 16.287308
v -66.370079 8.727418 13.289123
v -66.370079 13.587874 13.289123
v -66.370079 13.587874 16.287308
v -66.459511 8.532158 1.334686
v -66.459511 8.532158 -6.702183
v -66.459511 13.676333 1.334686
v -66.459511 13.676333 -6.702183
v -53.078999 6.065677 -20.182262
v -53.078999 6.065677 -23.775814
v -53.078999 13.329337 -20.182262
v -53.078999 13.329337 -23.775814
v -53.078999 6.065677 -24.502609
v -53.078999 6.065677 -28.096161
v -53.078999 13.329337 -24.502609
v -53.078999 13.329337 -28.096161
v -43.224876 5.948939 -32.604279
v -39.511803 5.948939 -32.604279
v -43.224876 13.372539 -32.604279
v -39.511803 13.372539 -32.604279
v -38.915939 5.948939 -32.604279
v -35.322388 5.948939 -32.604279
v -38.915939 13.372539 -32.604279
v -35.322388 13.372539 -32.604279
v 33.419937 22.194721 20.402262
v 28.235819 22.194721 20.402262
v 33.419937 30.221958 20.402262
v 28.235819 30.221958 20.402262
v 26.796709 22.194721 20.402262
v 21.612593 22.194721 20.402262
v 26.796709 30.221958 20.402262
v 21.612593 30.221958 20.402262
v 73.125671 25.362858 -6.033407
v 73.087967 25.362854 11.229058
v 73.125679 30.491604 -6.033405
v 73.087975 30.491600 11.229061
v -29.222242 25.336441 40.065731
v -36.451355 25.336441 40.065731
v -29.222242 30.480618 40.065731
v -36.451355 30.480618 40.065731
v -48.887161 23.295269 40.238842
v -53.805382 23.295269 40.238842
v -48.887161 30.337013 40.238842
v -53.805382 30.337013 40.238842
v -54.365520 23.295269 40.238842
v -59.283741 23.295269 40.238842
v -54.365520 30.337013 40.238842
v -59.283741 30.337013 40.238842
v -66.370079 25.531700 16.287308
v -66.370079 25.531700 13.289123
v -66.370079 30.392159 13.289123
v -66.370079 30.392159 16.287308
v -66.459511 25.336441 1.334686
v -66.459511 25.336441 -6.702183
v -66.459511 30.480618 1.334686
v -66.459511 30.480618 -6.702183
v -53.078999 22.869961 -20.182262
v -53.078999 22.869961 -23.775814
v -53.078999 30.133621 -20.182262
v -53.078999 30.133621 -23.775814
v -53.078999 22.869961 -24.502609
v -53.078999 22.869961 -28.096161
v -53.078999 30.133621 -24.502609
v -53.078999 30.133621 -28.096161
v -43.224876 22.753222 -32.604279
v -39.511803 22.753222 -32.604279
v -43.224876 30.176823 -32.604279
v -39.511803 30.176823 -32.604279
v -38.915939 22.753222 -32.604279
v -35.322388 22.753222 -32.604279
v -38.915939 30.176823 -32.604279
v -35.322388 30.176823 -32.604279
vn 0.000000 0.000000 -1.000000
vn 0.000000 0.000000 -1.000000
vn 0.000000 0.000000 -1.000000
vn 0.000000 0.000000 -1.000000
vn 0.000000 0.000000 -1.000000
vn 0.000000 0.000000 -1.000000
vn 0.000000 0.000000 -1.000000
vn 0.000000 0.000000 -1.000000
vn 0.000000 0.000000 -1.000000
vn 0.000000 0.000000 -1.000000
vn 0.000000 0.000000 -1.000000
vn 0.000000 0.000000 -1.000000
vn 0.000000 0.000000 -1.000000
vn 0.000000 0.000000 -1.000000
vn 0.000000 0.000000 -1.000000
vn 0.000000 0.000000 -1.000000
vn 0.000000 0.000000 -1.000000
vn 0.000000 0.000000 -1.000000
vn 0.000000 0.000000 -1.000000
vn 0.000000 0.000000 -1.000000
vn 0.000000 0.000000 -1.000000
vn 0.000000 0.000000 -1.000000
vn 0.000000 0.000000 -1.000000
vn 0.000000 0.000000 -1.000000
vn -1.000000 0.000000 0.000000
vn -1.000000 0.000000 0.000000
vn -1.000000 0.000000 0.000000
vn -1.000000 0.000000 0.000000
vn 1.000000 0.000000 0.000000
vn 1.000000 0.000000 0.000000
vn 1.000000 0.000000 0.000000
vn 1.000000 0.000000 0.000000
vn 1.000000 0.000000 0.000000
vn 1.000000 0.000000 0.000000
vn 1.000000 0.000000 0.000000
vn 1.000000 0.000000 0.000000
vn 1.000000 0.000000 0.000000
vn 1.000000 0.000000 0.000000
vn 1.000000 0.000000 0.000000
vn 1.000000 0.000000 0.000000
vn 0.000000 0.000000 1.000000
vn 0.000000 0.000000 1.000000
vn 0.000000 0.000000 1.000000
vn 0.000000 0.000000 1.000000
vn 0.000000 0.000000 1.000000
vn 0.000000 0.000000 1.000000
vn 0.000000 0.000000 1.000000
vn 0.000000 0.000000 1.000000
vn 0.000000 0.000000 -1.000000
vn 0.000000 0.000000 -1.000000
vn 0.000000 0.000000 -1.000000
vn 0.000000 0.000000 -1.000000
vn 0.000000 0.000000 -1.000000
vn 0.000000 0.000000 -1.000000
vn 0.000000 0.000000 -1.000000
vn 0.000000 0.000000 -1.000000
vn 0.000000 0.000000 -1.000000
vn 0.000000 0.000000 -1.000000
vn 0.000000 0.000000 -1.000000
vn 0.000000 0.000000 -1.000000
vn 0.000000 0.000000 -1.000000
vn 0.000000 0.000000 -1.000000
vn 0.000000 0.000000 -1.000000
vn 0.000000 0.000000 -1.000000
vn 0.000000 0.000000 -1.000000
vn 0.000000 0.000000 -1.000000
vn 0.000000 0.000000 -1.000000
vn 0.000000 0.000000 -1.000000
vn 0.000000 0.000000 -1.000000
vn 0.000000 0.000000 -1.000000
vn 0.000000 0.000000 -1.000000
vn 0.000000 0.000000 -1.000000
vn 0.000000 0.000000 -1.000000
vn 0.000000 0.000000 -1.000000
vn 0.000000 0.000000 -1.000000
vn 0.000000 0.000000 -1.000000
vn -1.000000 0.000000 0.000000
vn -1.000000 0.000000 0.000000
vn -1.000000 0.000000 0.000000
vn -1.000000 0.000000 0.000000
vn 1.000000 0.000000 0.000000
vn 1.000000 0.000000 0.000000
vn 1.000000 0.000000 0.000000
vn 1.000000 0.000000 0.000000
vn 1.000000 0.000000 0.000000
vn 1.000000 0.000000 0.000000
vn 1.000000 0.000000 0.000000
vn 1.000000 0.000000 0.000000
vn 1.000000 0.000000 0.000000
vn 1.000000 0.000000 0.000000
vn 1.000000 0.000000 0.000000
vn 1.000000 0.000000 0.000000
vn 0.000000 0.000000 1.000000
vn 0.000000 0.000000 1.000000
vn 0.000000 0.000000 1.000000
vn 0.000000 0.000000 1.000000
vn 0.000000 0.000000 1.000000
vn 0.000000 0.000000 1.000000
vn 0.000000 0.000000 1.000000
vn 0.000000 0.000000 1.000000
vn 0.000000 0.000000 -1.000000
vn 0.000000 0.000000 -1.000000
vn 0.000000 0.000000 -1.000000
vn 0.000000 0.000000 -1.000000
vn 0.000000 0.000000 -1.000000
vn 0.000000 0.000000 -1.000000
vn 0.000000 0.000000 -1.000000
vn 0.000000 0.000000 -1.000000
vn 0.000000 0.000000 -1.000000
vn 0.000000 0.000000 -1.000000
vn 0.000000 0.000000 -1.000000
vn 0.000000 0.000000 -1.000000
vn 0.000000 0.000000 -1.000000
vn 0.000000 0.000000 -1.000000
vn 0.000000 0.000000 -1.000000
vn 0.000000 0.000000 -1.000000
vn 0.000000 0.000000 -1.000000
vn 0.000000 0.000000 -1.000000
vn 0.000000 0.000000 -1.000000
vn 0.000000 0.000000 -1.000000
vn 0.000000 0.000000 -1.000000
vn 0.000000 0.000000 -1.000000
vn 0.000000 0.000000 -1.000000
vn 0.000000 0.000000 -1.000000
vn -1.000000 0.000000 0.000000
vn -1.000000 0.000000 0.000000
vn -1.000000 0.000000 0.000000
vn -1.000000 0.000000 0.000000
vn 1.000000 0.000000 0.000000
vn 1.000000 0.000000 0.000000
vn 1.000000 0.000000 0.000000
vn 1.000000 0.000000 0.000000
vn 1.000000 0.000000 0.000000
vn 1.000000 0.000000 0.000000
vn 1.000000 0.000000 0.000000
vn 1.000000 0.000000 0.000000
vn 1.000000 0.000000 0.000000
vn 1.000000 0.000000 0.000000
vn 1.000000 0.000000 0.000000
vn 1.000000 0.000000 0.000000
vn 0.000000 0.000000 1.000000
vn 0.000000 0.000000 1.000000
vn 0.000000 0.000000 1.000000
vn 0.000000 0.000000 1.000000
vn 0.000000 0.000000 1.000000
vn 0.000000 0.000000 1.000000
vn 0.000000 0.000000 1.000000
vn 0.000000 0.000000 1.000000
vn 0.000000 0.000000 -1.000000
vn 0.000000 0.000000 -1.000000
vn 0.000000 0.000000 -1.000000
vn 0.000000 0.000000 -1.000000
vn 0.000000 0.000000 -1.000000
vn 0.000000 0.000000 -1.000000
vn 0.000000 0.000000 -1.000000
vn 0.000000 0.000000 -1.000000
vn 0.000000 0.000000 -1.000000
vn 0.000000 0.000000 -1.000000
vn 0.000000 0.000000 -1.000000
vn 0.000000 0.000000 -1.000000
vn 0.000000 0.000000 -1.000000
vn 0.000000 0.000000 -1.000000
vn 0.000000 0.000000 -1.000000
vn 0.000000 0.000000 -1.000000
vn 0.000000 0.000000 -1.000000
vn 0.000000 0.000000 -1.000000
vn 0.000000 0.000000 -1.000000
vn 0.000000 0.000000 -1.000000
vn 0.000000 0.000000 -1.000000
vn 0.000000 0.000000 -1.000000
vn 0.000000 0.000000 -1.000000
vn 0.000000 0.000000 -1.000000
vn -1.000000 0.000000 0.000000
vn -1.000000 0.000000 0.000000
vn -1.000000 0.000000 0.000000
vn -1.000000 0.000000 0.000000
vn 1.000000 0.000000 0.000000
vn 1.000000 0.000000 0.000000
vn 1.000000 0.000000 0.000000
vn 1.000000 0.000000 0.000000
vn 1.000000 0.000000 0.000000
vn 1.000000 0.000000 0.000000
vn 1.000000 0.000000 0.000000
vn 1.000000 0.000000 0.000000
vn 1.000000 0.000000 0.000000
vn 1.000000 0.000000 0.000000
vn 1.000000 0.000000 0.000000
vn 1.000000 0.000000 0.000000
vn 0.000000 0.000000 1.000000
vn 0.000000 0.000000 1.000000
vn 0.000000 0.000000 1.000000
vn 0.000000 0.000000 1.000000
vn 0.000000 0.000000 1.000000
vn 0.000000 0.000000 1.000000
vn 0.000000 0.000000 1.000000
vn 0.000000 0.000000 1.000000
vn 0.000000 0.000000 -1.000000
vn 0.000000 0.000000 -1.000000
vn 0.000000 0.000000 -1.000000
vn 0.000000 0.000000 -1.000000
vn 0.000000 0.000000 -1.000000
vn 0.000000 0.000000 -1.000000
vn 0.000000 0.000000 -1.000000
vn 0.000000 0.000000 -1.000000
vn 0.000000 0.000000 -1.000000
vn 0.000000 0.000000 -1.000000
vn 0.000000 0.000000 -1.000000
vn 0.000000 0.000000 -1.000000
vn 0.000000 0.000000 -1.000000
vn 0.000000 0.000000 -1.000000
vn 0.000000 0.000000 -1.000000
vn 0.000000 0.000000 -1.000000
vn 0.000000 0.000000 -1.000000
vn 0.000000 0.000000 -1.000000
vn 0.000000 0.000000 -1.000000
vn 0.000000 0.000000 -1.000000
vn 0.000000 0.000000 -1.000000
vn 0.000000 0.000000 -1.000000
vn 0.000000 0.000000 -1.000000
vn 0.000000 0.000000 -1.000000
vn 0.000000 0.000000 -1.000000
vn 0.000000 0.000000 -1.000000
vn 0.000000 0.000000 -1.000000
vn 0.000000 0.000000 -1.000000
vn -1.000000 0.000000 0.000000
vn -1.000000 0.000000 0.000000
vn -1.000000 0.000000 0.000000
vn -1.000000 0.000000 0.000000
vn 1.000000 0.000000 0.000000
vn 1.000000 0.000000 0.000000
vn 1.000000 0.000000 0.000000
vn 1.000000 0.000000 0.000000
vn 1.000000 0.000000 0.000000
vn 1.000000 0.000000 0.000000
vn 1.000000 0.000000 0.000000
vn 1.000000 0.000000 0.000000
vn 1.000000 0.000000 0.000000
vn 1.000000 0.000000 0.000000
vn 1.000000 0.000000 0.000000
vn 1.000000 0.000000 0.000000
vn 0.000000 0.000000 1.000000
vn 0.000000 0.000000 1.000000
vn 0.000000 0.000000 1.000000
vn 0.000000 0.000000 1.000000
vn 0.000000 0.000000 1.000000
vn 0.000000 0.000000 1.000000
vn 0.000000 0.000000 1.000000
vn 0.000000 0.000000 1.000000
vn 0.000000 0.000000 -1.000000
vn 0.000000 0.000000 -1.000000
vn 0.000000 0.000000 -1.000000
vn 0.000000 0.000000 -1.000000
vn 0.000000 0.000000 -1.000000
vn 0.000000 0.000000 -1.000000
vn 0.000000 0.000000 -1.000000
vn 0.000000 0.000000 -1.000000
vn 0.000000 0.000000 -1.000000
vn 0.000000 0.000000 -1.000000
vn 0.000000 0.000000 -1.000000
vn 0.000000 0.000000 -1.000000
vn 0.000000 0.000000 -1.000000
vn 0.000000 0.000000 -1.000000
vn 0.000000 0.000000 -1.000000
vn 0.000000 0.000000 -1.000000
vn 0.000000 0.000000 -1.000000
vn 0.000000 0.000000 -1.000000
vn 0.000000 0.000000 -1.000000
vn 0.000000 0.000000 -1.000000
vn 0.000000 0.000000 -1.000000
vn 0.000000 0.000000 -1.000000
vn 0.000000 0.000000 -1.000000
vn 0.000000 0.000000 -1.000000
vn -1.000000 0.000000 0.000000
vn -1.000000 0.000000 0.000000
vn -1.000000 0.000000 0.000000
vn -1.000000 0.000000 0.000000
vn 1.000000 0.000000 0.000000
vn 1.000000 0.000000 0.000000
vn 1.000000 0.000000 0.000000
vn 1.000000 0.000000 0.000000
vn 1.000000 0.000000 0.000000
vn 1.000000 0.000000 0.000000
vn 1.000000 0.000000 0.000000
vn 1.000000 0.000000 0.000000
vn 1.000000 0.000000 0.000000
vn 1.000000 0.000000 0.000000
vn 1.000000 0.000000 0.000000
vn 1.000000 0.000000 0.000000
vn 0.000000 0.000000 1.000000
vn 0.000000 0.000000 1.000000
vn 0.000000 0.000000 1.000000
vn 0.000000 0.000000 1.000000
vn 0.000000 0.000000 1.000000
vn 0.000000 0.000000 1.000000
vn 0.000000 0.000000 1.000000
vn 0.000000 0.000000 1.000000
s off
g window_frame004polySurface3polySurface22
usemtl vidrio:glass
f 1//1 2//2 4//3 3//4
f 5//5 6//6 8//7 7//8
f 9//9 10//10 12//11 11//12
f 13//13 14//14 16//15 15//16
f 17//17 18//18 20//19 19//20
f 21//21 22//22 24//23 23//24
f 26//25 25//26 28//27 27//28
f 29//29 30//30 32//31 31//32
f 33//33 34//34 36//35 35//36
f 37//37 38//38 40//39 39//40
f 41//41 42//42 44//43 43//44
f 45//45 46//46 48//47 47//48
usemtl vidrio1:glass
f 49//49 50//50 52//51 51//52
f 53//53 54//54 56//55 55//56
f 57//57 58//58 60//59 59//60
f 61//61 62//62 64//63 63//64
f 65//65 66//66 68//67 67//68
f 69//69 70//70 72//71 71//72
f 73//73 74//74 76//75 75//76
f 78//77 77//78 80//79 79//80
f 81//81 82//82 84//83 83//84
f 85//85 86//86 88//87 87//88
f 89//89 90//90 92//91 91//92
f 93//93 94//94 96//95 95//96
f 97//97 98//98 100//99 99//100
usemtl vidrio:glass
f 101//101 102//102 104//103 103//104
f 105//105 106//106 108//107 107//108
f 109//109 110//110 112//111 111//112
f 113//113 114//114 116//115 115//116
f 117//117 118//118 120//119 119//120
f 121//121 122//122 124//123 123//124
f 126//125 125//126 128//127 127//128
f 129//129 130//130 132//131 131//132
f 133//133 134//134 136//135 135//136
f 137//137 138//138 140//139 139//140
f 141//141 142//142 144//143 143//144
f 145//145 146//146 148//147 147//148
f 149//149 150//150 152//151 151//152
f 153//153 154//154 156//155 155//156
f 157//157 158//158 160//159 159//160
f 161//161 162//162 164//163 163//164
f 165//165 166//166 168//167 167//168
f 169//169 170//170 172//171 171//172
f 174//173 173//174 176//175 175//176
f 177//177 178//178 180//179 179//180
f 181//181 182//182 184//183 183//184
f 185//185 186//186 188//187 187//188
f 189//189 190//190 192//191 191//192
f 193//193 194//194 196//195 195//196
usemtl vidrio1:glass
f 197//197 198//198 200//199 199//200
f 201//201 202//202 204//203 203//204
f 205//205 206//206 208//207 207//208
f 209//209 210//210 212//211 211//212
f 213//213 214//214 216//215 215//216
f 217//217 218//218 220//219 219//220
f 221//221 222//222 224//223 223//224
f 226//225 225//226 228//227 227//228
f 229//229 230//230 232//231 231//232
f 233//233 234//234 236//235 235//236
f 237//237 238//238 240//239 239//240
f 241//241 242//242 244//243 243//244
f 245//245 246//246 248//247 247//248
usemtl vidrio:glass
f 249//249 250//250 252//251 251//252
f 253//253 254//254 256//255 255//256
f 257//257 258//258 260//259 259//260
f 261//261 262//262 264//263 263//264
f 265//265 266//266 268//267 267//268
f 269//269 270//270 272//271 271//272
f 274//273 273//274 276//275 275//276
f 277//277 278//278 280//279 279//280
f 281//281 282//282 284//283 283//284
f 285//285 286//286 288//287 287//288
f 289//289 290//290 292//291 291//292
f 293//293 294//294 296//295 295//296
